<svg width="64" height="64" viewBox="0 0 64 64" fill="none" xmlns="http://www.w3.org/2000/svg">
<path d="M5.78564 19.456V44.544C5.78564 46.1568 6.63044 47.616 8.03844 48.4352L29.7728 60.9792C31.1552 61.7728 32.8704 61.7728 34.2528 60.9792L55.9872 48.4352C57.3696 47.6416 58.24 46.1568 58.24 44.544V19.456C58.24 17.8432 57.3952 16.384 55.9872 15.5648L34.2528 3.0208C32.8704 2.2272 31.1552 2.2272 29.7728 3.0208L8.03844 15.5648C6.65604 16.3584 5.81124 17.8432 5.81124 19.456H5.78564Z" fill="#213147"/>
<path d="M36.7358 36.8642L33.6382 45.3632C33.5614 45.5936 33.5614 45.8496 33.6382 46.1056L38.963 60.7232L45.1324 57.1648L37.7342 36.8642C37.555 36.4034 36.915 36.4034 36.7358 36.8642Z" fill="#12AAFF"/>
<path d="M42.9564 22.5794C42.7772 22.1186 42.1372 22.1186 41.958 22.5794L38.8603 31.0786C38.7835 31.309 38.7835 31.565 38.8603 31.821L47.59 55.7568L53.7596 52.1984L42.9564 22.605V22.5794Z" fill="#12AAFF"/>
<path d="M32 3.968C32.1536 3.968 32.3072 4.0192 32.4352 4.096L55.936 17.664C56.2176 17.8176 56.3712 18.1248 56.3712 18.432V45.568C56.3712 45.8752 56.192 46.1824 55.936 46.336L32.4352 59.904C32.3072 59.9808 32.1536 60.032 32 60.032C31.8464 60.032 31.6928 59.9808 31.5648 59.904L8.06404 46.336C7.78244 46.1824 7.62884 45.8752 7.62884 45.568V18.4064C7.62884 18.0992 7.80804 17.792 8.06404 17.6384L31.5648 4.0704C31.6928 3.9936 31.8464 3.9424 32 3.9424V3.968ZM32 0C31.1552 0 30.336 0.2048 29.568 0.64L6.06724 14.208C4.55684 15.0784 3.63525 16.6656 3.63525 18.4064V45.5424C3.63525 47.2832 4.55684 48.8704 6.06724 49.7408L29.568 63.3088C30.3104 63.744 31.1552 63.9488 32 63.9488C32.8448 63.9488 33.664 63.744 34.432 63.3088L57.9328 49.7408C59.4432 48.8704 60.3648 47.2832 60.3648 45.5424V18.4064C60.3648 16.6656 59.4432 15.0784 57.9328 14.208L34.4064 0.64C33.664 0.2048 32.8192 0 31.9744 0H32Z" fill="#9DCCED"/>
<path d="M16.4351 55.7824L18.6111 49.8432L22.9631 53.4528L18.8927 57.1904L16.4351 55.7824Z" fill="#213147"/>
<path d="M30.0032 16.4864H24.0384C23.6032 16.4864 23.1936 16.768 23.04 17.1776L10.2656 52.1984L16.4352 55.7568L30.5152 17.1776C30.6432 16.8192 30.3872 16.4608 30.0288 16.4608L30.0032 16.4864Z" fill="white"/>
<path d="M40.4476 16.4863H34.483C34.0478 16.4863 33.6382 16.7679 33.4846 17.1775L18.8926 57.1648L25.0622 60.7232L40.934 17.1775C41.062 16.8191 40.806 16.4607 40.4476 16.4607V16.4863Z" fill="white"/>
</svg>
