<svg width="64" height="64" viewBox="0 0 64 64" fill="none" xmlns="http://www.w3.org/2000/svg">
<path d="M9.0625 21.024V42.976C9.0625 44.3872 9.8017 45.664 11.0337 46.3808L30.0513 57.3568C31.2609 58.0512 32.7617 58.0512 33.9713 57.3568L52.9889 46.3808C54.1985 45.6864 54.9601 44.3872 54.9601 42.976V21.024C54.9601 19.6128 54.2209 18.336 52.9889 17.6192L33.9713 6.64318C32.7617 5.94878 31.2609 5.94878 30.0513 6.64318L11.0337 17.6192C9.8241 18.3136 9.0849 19.6128 9.0849 21.024H9.0625Z" fill="#213147"/>
<path d="M36.1436 36.2561L33.4332 43.6928C33.366 43.8944 33.366 44.1184 33.4332 44.3424L38.0924 57.1328L43.4907 54.0192L37.0172 36.2561C36.8604 35.8529 36.3004 35.8529 36.1436 36.2561Z" fill="#12AAFF"/>
<path d="M41.5866 23.7569C41.4298 23.3537 40.8698 23.3537 40.713 23.7569L38.0025 31.1937C37.9353 31.3953 37.9353 31.6193 38.0025 31.8433L45.641 52.7872L51.0394 49.6736L41.5866 23.7793V23.7569Z" fill="#12AAFF"/>
<path d="M31.9999 7.472C32.1343 7.472 32.2687 7.5168 32.3807 7.584L52.9438 19.456C53.1902 19.5904 53.3246 19.8592 53.3246 20.128V43.872C53.3246 44.1408 53.1678 44.4096 52.9438 44.544L32.3807 56.416C32.2687 56.4832 32.1343 56.528 31.9999 56.528C31.8655 56.528 31.7311 56.4832 31.6191 56.416L11.0559 44.544C10.8095 44.4096 10.6751 44.1408 10.6751 43.872V20.1056C10.6751 19.8368 10.8319 19.568 11.0559 19.4336L31.6191 7.5616C31.7311 7.4944 31.8655 7.4496 31.9999 7.4496V7.472ZM31.9999 4C31.2607 4 30.5439 4.1792 29.8719 4.56L9.30865 16.432C7.98705 17.1936 7.18066 18.5824 7.18066 20.1056V43.8496C7.18066 45.3728 7.98705 46.7616 9.30865 47.5232L29.8719 59.3952C30.5215 59.776 31.2607 59.9552 31.9999 59.9552C32.7391 59.9552 33.4559 59.776 34.1279 59.3952L54.691 47.5232C56.0126 46.7616 56.819 45.3728 56.819 43.8496V20.1056C56.819 18.5824 56.0126 17.1936 54.691 16.432L34.1055 4.56C33.4559 4.1792 32.7167 4 31.9775 4H31.9999Z" fill="#9DCCED"/>
<path d="M18.3809 52.8096L20.2849 47.6128L24.0929 50.7712L20.5313 54.0416L18.3809 52.8096Z" fill="#213147"/>
<path d="M30.2528 18.4256H25.0336C24.6528 18.4256 24.2944 18.672 24.16 19.0304L12.9824 49.6736L18.3808 52.7872L30.7008 19.0304C30.8128 18.7168 30.5888 18.4032 30.2752 18.4032L30.2528 18.4256Z" fill="white"/>
<path d="M39.3914 18.4255H34.1724C33.7916 18.4255 33.4332 18.6719 33.2988 19.0303L20.5308 54.0192L25.9292 57.1328L39.817 19.0303C39.929 18.7167 39.705 18.4031 39.3914 18.4031V18.4255Z" fill="white"/>
</svg>
