<svg width="64" height="64" viewBox="0 0 64 64" fill="none" xmlns="http://www.w3.org/2000/svg">
<path d="M31.665 59.33C46.3917 59.33 58.33 47.3917 58.33 32.665C58.33 17.9383 46.3917 6 31.665 6C16.9383 6 5 17.9383 5 32.665C5 47.3917 16.9383 59.33 31.665 59.33Z" fill="#E84142"/>
<path d="M40.4647 33.4084C41.2964 31.9848 42.6409 31.9848 43.4687 33.4084L48.6451 42.4163C49.4767 43.839 48.7964 45 47.1312 45H36.7048C35.0613 45 34.381 43.839 35.1909 42.4163L40.4647 33.4084ZM30.4517 16.067C31.2824 14.6443 32.6051 14.6443 33.4368 16.067L34.5892 18.1302L37.3093 22.8682C37.6358 23.5365 37.8054 24.2695 37.8054 25.012C37.8054 25.7546 37.6358 26.4876 37.3093 27.1559L28.1838 42.828C27.7764 43.4558 27.2254 43.9797 26.5756 44.357C25.9258 44.7344 25.1954 44.9547 24.4437 45H16.867C15.2046 45 14.5244 43.8577 15.3532 42.4163L30.4517 16.067Z" fill="white"/>
</svg>
