<svg width="64" height="64" viewBox="0 0 64 64" fill="none" xmlns="http://www.w3.org/2000/svg">
<path d="M31.8268 58.4932C46.5544 58.4932 58.4935 46.5541 58.4935 31.8265C58.4935 17.0989 46.5544 5.15985 31.8268 5.15985C17.0992 5.15985 5.16016 17.0989 5.16016 31.8265C5.16016 46.5541 17.0992 58.4932 31.8268 58.4932Z" fill="#6481E7"/>
<path fill-rule="evenodd" clip-rule="evenodd" d="M32.1382 13.0635V39.9828L44.0999 32.9115L32.1382 13.0635Z" fill="#C1CCF5"/>
<path fill-rule="evenodd" clip-rule="evenodd" d="M20.1763 32.9115L32.138 39.9828V13.0635L20.1763 32.9115Z" fill="white"/>
<path fill-rule="evenodd" clip-rule="evenodd" d="M32.1388 27.4752L20.1763 32.9116L32.138 39.983L44.1004 32.9124L32.1388 27.4752Z" fill="#8299EC"/>
<path fill-rule="evenodd" clip-rule="evenodd" d="M32.1388 27.4752L20.1763 32.9116L32.138 39.983L32.1388 27.4752Z" fill="#C1CCF5"/>
<path fill-rule="evenodd" clip-rule="evenodd" d="M32.1382 42.2477V52.038L44.1078 35.1803L32.1382 42.2477Z" fill="#C1CCF5"/>
<path fill-rule="evenodd" clip-rule="evenodd" d="M20.1763 35.1803L32.138 52.0372V42.2477L20.1763 35.1803Z" fill="white"/>
</svg>
