<svg width="64" height="64" viewBox="0 0 64 64" fill="none" xmlns="http://www.w3.org/2000/svg">
<path d="M32.0002 58.6664C46.7276 58.6664 58.6668 46.7276 58.6668 31.9999C58.6668 17.2723 46.7276 5.33325 32.0002 5.33325C17.2726 5.33325 5.3335 17.2723 5.3335 31.9999C5.3335 46.7276 17.2726 58.6664 32.0002 58.6664Z" fill="white"/>
<path fill-rule="evenodd" clip-rule="evenodd" d="M31.9999 58.6664C46.7832 58.6664 58.6668 46.7828 58.6668 31.9997C58.6668 17.2165 46.7832 5.33325 31.9999 5.33325C17.2168 5.33325 5.3335 17.2165 5.3335 31.9997C5.3335 46.7828 17.2168 58.6664 31.9999 58.6664ZM20.7792 44.5172C22.3906 45.9944 24.2786 47.138 26.3343 47.8812C26.6679 48.1144 27.0013 48.548 27.0013 48.8816V50.448C27.0013 50.6648 27.0013 50.7816 26.8845 50.8816C26.7847 51.3312 26.3343 51.548 25.8844 51.3312C21.84 50.044 18.3097 47.504 15.8046 44.0776C13.2994 40.6516 11.9491 36.5175 11.9491 32.2733C11.9491 28.0287 13.2994 23.8945 15.8046 20.4683C18.3097 17.0422 21.84 14.5018 25.8844 13.2148C26.001 13.1148 26.2176 13.1148 26.3343 13.1148C26.7847 13.2148 27.0013 13.5481 27.0013 13.9981V15.5481C27.0013 16.1148 26.7847 16.4481 26.3343 16.6648C21.7845 18.3315 18.1178 21.8815 16.4511 26.548C15.689 28.597 15.3404 30.7767 15.4253 32.961C15.5103 35.1455 16.0271 37.2914 16.9461 39.2746C17.865 41.2584 19.1678 43.04 20.7792 44.5172ZM37.1178 13.6648C37.2178 13.2148 37.6677 12.9981 38.1175 13.2148C41.1728 14.2078 43.9464 15.9161 46.2072 18.1977C48.4688 20.4791 50.152 23.2678 51.1176 26.3314C54.4508 36.8815 48.6676 48.1144 38.1175 51.448C38.001 51.548 37.7845 51.548 37.6677 51.548C37.2178 51.448 37.001 51.1148 37.001 50.6648V49.1148C37.001 48.548 37.2178 48.2148 37.6677 47.9976C42.2176 46.3312 45.8844 42.7812 47.5512 38.1146C48.3128 36.0661 48.6616 33.8863 48.5768 31.7018C48.492 29.5175 47.9752 27.3717 47.056 25.3879C46.1372 23.4045 44.8344 21.6227 43.2228 20.1455C41.6116 18.6682 39.7237 17.5249 37.6677 16.7815C37.3343 16.5481 37.001 16.1148 37.001 15.6648V14.1148C37.001 13.8815 37.001 13.7815 37.1178 13.6648Z" fill="#2775CA"/>
<path d="M42 42H36.2723L32.0156 35.1755L27.4773 42H22L29.2614 31.7772L22.4069 22H28.0094L32.0156 28.4624L36.1158 22H41.5304L34.676 31.61L42 42Z" fill="white"/>
</svg>
