<svg width="64" height="64" viewBox="0 0 64 64" fill="none" xmlns="http://www.w3.org/2000/svg">
<path fill-rule="evenodd" clip-rule="evenodd" d="M16.9492 10.6667H47.6688C48.4028 10.6667 49.0788 11.0695 49.4452 11.724L58.394 27.7536C58.8576 28.5851 58.7204 29.6345 58.0584 30.3078L33.4246 55.3908C32.6255 56.2032 31.3421 56.2032 30.5449 55.3908L5.94149 30.3417C5.26545 29.6514 5.13765 28.5722 5.63637 27.7367L15.2033 11.6743C15.5761 11.0497 16.2369 10.6667 16.9492 10.6667Z" fill="#009393"/>
<path d="M41.5364 40.296H36.0746L32.0157 33.5082L27.6882 40.296H22.4653L29.3894 30.128L22.8533 20.4033H28.1956L32.0157 26.831L35.9254 20.4033H41.0884L34.5525 29.9618L41.5364 40.296Z" fill="white"/>
<path d="M36.7689 35.323H27.2334V30.3498H36.7689V35.323Z" fill="#009393"/>
<path d="M45.9744 30.3496C44.5756 31.8709 38.8511 33.0095 32.0014 33.0095C25.1518 33.0095 19.4254 31.8709 18.0244 30.3496C19.2123 29.0593 23.5108 28.0432 28.9654 27.7651L28.9664 25.3765C22.548 25.7044 17.7336 27.0534 17.6978 28.6677V32.0335C17.7336 33.6478 22.548 34.9949 28.9664 35.3228H35.0334C41.452 34.9939 46.2684 33.6478 46.304 32.0335V28.6677C46.2684 27.0534 41.452 25.7044 35.0334 25.3765V27.7651C40.49 28.0432 44.7868 29.0593 45.9744 30.3496Z" fill="white"/>
</svg>
