<svg width="227" height="24" viewBox="0 0 227 24" fill="none" xmlns="http://www.w3.org/2000/svg">
<path d="M43.4325 12.8126H48.2894V18.6423C47.5677 19.1679 46.7972 19.5507 45.9812 19.794C45.1652 20.0373 44.3005 20.1573 43.3935 20.1573C42.2296 20.1573 41.1763 19.9789 40.2336 19.6156C39.2908 19.2555 38.4846 18.7559 37.8149 18.1135C37.1452 17.4712 36.6283 16.7088 36.2642 15.8264C35.9001 14.944 35.718 13.9805 35.718 12.9359C35.718 11.8913 35.8936 10.9083 36.2414 10.0259C36.5893 9.14355 37.0834 8.38442 37.7271 7.74857C38.3708 7.11273 39.151 6.61638 40.0645 6.25952C40.978 5.90267 42.0021 5.72424 43.1334 5.72424C43.7186 5.72424 44.2647 5.76966 44.7719 5.86374C45.279 5.95782 45.7472 6.08758 46.1763 6.25304C46.6054 6.41849 46.9988 6.61638 47.3564 6.84022C47.714 7.06731 48.0391 7.31711 48.3317 7.58961L47.4832 8.89375C47.3531 9.10137 47.1841 9.22789 46.976 9.27331C46.768 9.31873 46.5404 9.26682 46.2933 9.11759C46.0592 8.97485 45.8317 8.84833 45.6074 8.73154C45.3831 8.618 45.1457 8.52067 44.8889 8.43308C44.6353 8.34874 44.359 8.28385 44.0599 8.23844C43.7608 8.19302 43.4162 8.17031 43.0261 8.17031C42.3694 8.17031 41.7745 8.28385 41.2414 8.51094C40.7082 8.73803 40.2531 9.0592 39.8792 9.47445C39.5054 9.88969 39.216 10.3893 39.0145 10.9732C38.8129 11.5572 38.7121 12.2092 38.7121 12.9294C38.7121 13.708 38.8227 14.4023 39.0437 15.0154C39.2648 15.6285 39.5769 16.1476 39.98 16.5693C40.3831 16.9911 40.8643 17.3122 41.4299 17.5328C41.9923 17.7534 42.6165 17.8637 43.3057 17.8637C43.7738 17.8637 44.19 17.8183 44.5573 17.7242C44.9247 17.6302 45.2823 17.5004 45.6334 17.3382V14.9635H44.0339C43.8454 14.9635 43.6958 14.9116 43.5885 14.811C43.4813 14.7105 43.4292 14.5807 43.4292 14.4282V12.8029L43.4325 12.8126Z" fill="#231815"/>
<path d="M49.9279 18.5937C49.9279 18.3796 49.9669 18.1784 50.0514 17.9838C50.1327 17.7924 50.2432 17.6269 50.3895 17.4874C50.5325 17.3479 50.6983 17.2376 50.8901 17.1565C51.0819 17.0754 51.29 17.0333 51.5208 17.0333C51.7516 17.0333 51.9499 17.0722 52.145 17.1565C52.34 17.2409 52.5091 17.3479 52.6521 17.4874C52.7952 17.6269 52.9057 17.7924 52.987 17.9838C53.0683 18.1752 53.1105 18.3796 53.1105 18.5937C53.1105 18.8078 53.0715 19.0187 52.987 19.2068C52.9025 19.395 52.7919 19.5572 52.6521 19.6967C52.5091 19.8362 52.34 19.9432 52.145 20.0211C51.9499 20.099 51.7419 20.1379 51.5208 20.1379C51.2998 20.1379 51.0819 20.099 50.8901 20.0211C50.6983 19.9432 50.5293 19.8362 50.3895 19.6967C50.2464 19.5572 50.1327 19.395 50.0514 19.2068C49.9701 19.0187 49.9279 18.8143 49.9279 18.5937Z" fill="#231815"/>
<path d="M60.7925 17.6691C61.2671 17.6691 61.693 17.588 62.0701 17.4291C62.4472 17.2701 62.7658 17.0463 63.0258 16.7543C63.2859 16.4623 63.4842 16.1087 63.6208 15.6935C63.7573 15.2782 63.8256 14.8111 63.8256 14.292V5.88324H66.7514V14.292C66.7514 15.1484 66.6116 15.9368 66.3386 16.6537C66.0622 17.3707 65.6656 17.9903 65.152 18.5061C64.6383 19.0252 64.0141 19.4307 63.2794 19.7227C62.5447 20.0146 61.7157 20.1606 60.7925 20.1606C59.8692 20.1606 59.0369 20.0146 58.299 19.7227C57.561 19.4307 56.9336 19.0252 56.4232 18.5061C55.9095 17.9871 55.5162 17.3707 55.2366 16.6537C54.957 15.9368 54.8237 15.1484 54.8237 14.292V5.88324H57.7496V14.292C57.7496 14.8111 57.8178 15.2782 57.9544 15.6935C58.0909 16.1087 58.2892 16.4623 58.5493 16.7543C58.8094 17.0463 59.128 17.2733 59.5051 17.4291C59.8822 17.588 60.3113 17.6691 60.7925 17.6691Z" fill="#231815"/>
<path d="M68.468 18.5937C68.468 18.3796 68.507 18.1784 68.5916 17.9838C68.6728 17.7924 68.7834 17.6269 68.9297 17.4874C69.0727 17.3479 69.2385 17.2376 69.4303 17.1565C69.6221 17.0754 69.8302 17.0333 70.061 17.0333C70.2918 17.0333 70.4901 17.0722 70.6852 17.1565C70.8802 17.2409 71.0493 17.3479 71.1923 17.4874C71.3353 17.6269 71.4459 17.7924 71.5272 17.9838C71.6084 18.1752 71.6507 18.3796 71.6507 18.5937C71.6507 18.8078 71.6117 19.0187 71.5272 19.2068C71.4426 19.395 71.3321 19.5572 71.1923 19.6967C71.0493 19.8362 70.8802 19.9432 70.6852 20.0211C70.4901 20.099 70.282 20.1379 70.061 20.1379C69.8399 20.1379 69.6221 20.099 69.4303 20.0211C69.2385 19.9432 69.0694 19.8362 68.9297 19.6967C68.7866 19.5572 68.6728 19.395 68.5916 19.2068C68.5103 19.0187 68.468 18.8143 68.468 18.5937Z" fill="#231815"/>
<path d="M83.5166 5.88324C84.4658 5.88324 85.2786 5.97408 85.9515 6.1525C86.6245 6.33093 87.1739 6.58397 87.5997 6.91163C88.0256 7.23928 88.3377 7.63831 88.5328 8.10222C88.7278 8.56937 88.8253 9.09167 88.8253 9.66913C88.8253 9.99354 88.7766 10.305 88.6823 10.6034C88.588 10.9019 88.4417 11.1841 88.2434 11.4469C88.0451 11.7097 87.7883 11.9465 87.4795 12.1606C87.1674 12.3747 86.7968 12.5564 86.3676 12.7056C87.3299 12.9327 88.0419 13.3025 88.5035 13.8151C88.9651 14.3277 89.196 14.9927 89.196 15.8102C89.196 16.4072 89.0789 16.9619 88.8481 17.4745C88.6173 17.9871 88.2792 18.4315 87.8403 18.8078C87.3982 19.1841 86.852 19.4793 86.2083 19.687C85.5614 19.8978 84.8202 20.0049 83.9814 20.0049H78.5004V5.88324H83.5231H83.5166ZM81.4197 8.10222V11.9173H83.341C83.7506 11.9173 84.1147 11.8849 84.4333 11.8167C84.7519 11.7486 85.0185 11.6416 85.2331 11.4923C85.4476 11.3431 85.6134 11.1452 85.7272 10.9019C85.841 10.6586 85.8963 10.3666 85.8963 10.0227C85.8963 9.67886 85.8475 9.37391 85.7532 9.12736C85.6589 8.88081 85.5159 8.68291 85.3208 8.53369C85.1258 8.38446 84.8787 8.2774 84.5796 8.20927C84.2805 8.14115 83.9262 8.10546 83.5166 8.10546H81.4197V8.10222ZM83.9262 17.7664C84.3943 17.7664 84.7779 17.7113 85.0835 17.5978C85.3859 17.4842 85.6264 17.3317 85.8085 17.1436C85.9905 16.9554 86.1173 16.7381 86.1888 16.4948C86.2604 16.2514 86.2961 16.0016 86.2961 15.7389C86.2961 15.4534 86.2539 15.1971 86.1693 14.97C86.0848 14.7429 85.9483 14.5515 85.7597 14.3893C85.5712 14.2304 85.3273 14.1071 85.0217 14.026C84.7162 13.9449 84.3456 13.8995 83.9034 13.8995H81.4165V17.7632H83.9229L83.9262 17.7664Z" fill="#231815"/>
<path d="M93.6205 5.4939V20.0048H90.9287V5.4939H93.6205Z" fill="#231815"/>
<path d="M100.399 9.81506C101.153 9.81506 101.839 9.9351 102.457 10.1752C103.074 10.4152 103.604 10.7559 104.046 11.2035C104.488 11.648 104.83 12.1898 105.07 12.8224C105.311 13.4582 105.431 14.1752 105.431 14.9732C105.431 15.7713 105.311 16.4882 105.07 17.1273C104.83 17.7664 104.488 18.3082 104.046 18.7591C103.604 19.2068 103.074 19.5507 102.457 19.7907C101.839 20.0308 101.153 20.1508 100.399 20.1508C99.6445 20.1508 98.9455 20.0308 98.3246 19.7907C97.7037 19.5507 97.1705 19.2068 96.7284 18.7591C96.2863 18.3114 95.9417 17.7664 95.6978 17.1273C95.454 16.4882 95.3337 15.7713 95.3337 14.9732C95.3337 14.1752 95.4573 13.4582 95.6978 12.8224C95.9417 12.1865 96.283 11.648 96.7284 11.2035C97.1705 10.7591 97.7037 10.4152 98.3246 10.1752C98.9455 9.9351 99.6347 9.81506 100.399 9.81506ZM100.399 18.1362C101.166 18.1362 101.735 17.8702 102.105 17.3414C102.476 16.8126 102.661 16.0276 102.661 14.9797C102.661 13.9319 102.476 13.1598 102.105 12.6277C101.735 12.0989 101.166 11.8361 100.399 11.8361C99.6315 11.8361 99.0333 12.0989 98.6627 12.6277C98.2921 13.1565 98.1068 13.9416 98.1068 14.9797C98.1068 16.0178 98.2921 16.8126 98.6627 17.3414C99.0333 17.8702 99.612 18.1362 100.399 18.1362Z" fill="#231815"/>
<path d="M114.423 12.2092C114.345 12.313 114.267 12.3941 114.189 12.4493C114.111 12.5044 114.001 12.5304 113.858 12.5304C113.728 12.5304 113.601 12.4915 113.481 12.4201C113.36 12.3455 113.224 12.2644 113.068 12.1768C112.912 12.0892 112.726 12.0081 112.512 11.9335C112.297 11.8589 112.031 11.8199 111.712 11.8199C111.309 11.8199 110.961 11.8945 110.662 12.0373C110.366 12.1833 110.119 12.3941 109.924 12.6666C109.729 12.9392 109.586 13.2701 109.492 13.6593C109.397 14.0486 109.349 14.4866 109.349 14.9732C109.349 15.9984 109.553 16.7834 109.969 17.3284C110.382 17.8735 110.945 18.146 111.663 18.146C111.91 18.146 112.122 18.1265 112.3 18.0843C112.479 18.0422 112.635 17.9902 112.769 17.9221C112.902 17.8572 113.019 17.7859 113.113 17.708C113.211 17.6301 113.302 17.5588 113.389 17.4939C113.477 17.429 113.565 17.3771 113.653 17.3317C113.741 17.2895 113.838 17.2668 113.952 17.2668C114.16 17.2668 114.322 17.3447 114.44 17.5004L115.21 18.4736C114.924 18.8045 114.618 19.0803 114.293 19.2976C113.968 19.515 113.63 19.6869 113.285 19.8134C112.938 19.94 112.583 20.0276 112.226 20.0762C111.868 20.1249 111.514 20.1508 111.163 20.1508C110.545 20.1508 109.96 20.034 109.407 19.8037C108.854 19.5734 108.37 19.236 107.954 18.7948C107.538 18.3536 107.206 17.8118 106.962 17.1695C106.719 16.5271 106.598 15.794 106.598 14.97C106.598 14.2368 106.706 13.5555 106.92 12.9262C107.135 12.2968 107.45 11.7518 107.866 11.2911C108.282 10.8305 108.796 10.4704 109.41 10.2076C110.025 9.94483 110.733 9.81506 111.54 9.81506C112.346 9.81506 112.98 9.93834 113.559 10.1849C114.137 10.4314 114.657 10.7883 115.119 11.2555L114.417 12.2092H114.423Z" fill="#231815"/>
<path d="M119.261 5.4939V13.7275H119.709C119.878 13.7275 120.012 13.7048 120.109 13.6561C120.207 13.6074 120.304 13.5198 120.402 13.3868L122.625 10.4282C122.736 10.279 122.863 10.1654 123.002 10.0876C123.142 10.0097 123.321 9.97078 123.532 9.97078H125.99L123.103 13.6301C122.876 13.9351 122.612 14.1752 122.313 14.3503C122.463 14.4542 122.593 14.5742 122.703 14.7104C122.814 14.8467 122.921 14.9992 123.025 15.1679L126.136 20.0048H123.718C123.51 20.0048 123.331 19.9692 123.181 19.901C123.032 19.8329 122.908 19.7129 122.811 19.5377L120.548 15.8491C120.457 15.6934 120.363 15.5928 120.265 15.5474C120.168 15.502 120.021 15.4793 119.826 15.4793H119.261V20.0048H116.569V5.4939H119.261Z" fill="#231815"/>
<path d="M134.017 12.2092C133.939 12.313 133.861 12.3941 133.783 12.4493C133.705 12.5044 133.594 12.5304 133.451 12.5304C133.321 12.5304 133.194 12.4915 133.074 12.4201C132.954 12.3455 132.817 12.2644 132.661 12.1768C132.505 12.0892 132.32 12.0081 132.105 11.9335C131.891 11.8589 131.624 11.8199 131.305 11.8199C130.902 11.8199 130.554 11.8945 130.255 12.0373C129.959 12.1833 129.712 12.3941 129.517 12.6666C129.322 12.9392 129.179 13.2701 129.085 13.6593C128.991 14.0486 128.942 14.4866 128.942 14.9732C128.942 15.9984 129.147 16.7834 129.563 17.3284C129.976 17.8735 130.538 18.146 131.257 18.146C131.504 18.146 131.715 18.1265 131.894 18.0843C132.073 18.0422 132.229 17.9902 132.362 17.9221C132.495 17.8572 132.612 17.7859 132.707 17.708C132.804 17.6301 132.895 17.5588 132.983 17.4939C133.071 17.429 133.158 17.3771 133.246 17.3317C133.334 17.2895 133.431 17.2668 133.545 17.2668C133.753 17.2668 133.916 17.3447 134.033 17.5004L134.803 18.4736C134.517 18.8045 134.212 19.0803 133.887 19.2976C133.562 19.515 133.223 19.6869 132.879 19.8134C132.531 19.94 132.177 20.0276 131.819 20.0762C131.461 20.1249 131.107 20.1508 130.756 20.1508C130.138 20.1508 129.553 20.034 129 19.8037C128.448 19.5734 127.963 19.236 127.547 18.7948C127.131 18.3536 126.8 17.8118 126.556 17.1695C126.312 16.5271 126.192 15.794 126.192 14.97C126.192 14.2368 126.299 13.5555 126.513 12.9262C126.728 12.2968 127.043 11.7518 127.46 11.2911C127.876 10.8305 128.389 10.4704 129.004 10.2076C129.618 9.94483 130.327 9.81506 131.133 9.81506C131.939 9.81506 132.573 9.93834 133.152 10.1849C133.731 10.4314 134.251 10.7883 134.712 11.2555L134.01 12.2092H134.017Z" fill="#231815"/>
<path d="M138.854 10.9537C139.043 10.7851 139.238 10.6326 139.443 10.4931C139.647 10.3536 139.865 10.2336 140.096 10.133C140.327 10.0324 140.574 9.95456 140.837 9.89941C141.101 9.84426 141.383 9.81831 141.689 9.81831C142.235 9.81831 142.719 9.91239 143.142 10.1005C143.565 10.2887 143.922 10.5515 144.212 10.8889C144.501 11.2263 144.719 11.6285 144.865 12.0957C145.011 12.5628 145.086 13.0754 145.086 13.6334V20.0081H142.404V13.6334C142.404 13.0754 142.274 12.6439 142.014 12.3357C141.754 12.0276 141.37 11.8751 140.863 11.8751C140.486 11.8751 140.132 11.9562 139.8 12.1184C139.469 12.2806 139.153 12.5077 138.854 12.7997V20.0113H136.162V5.4939H138.854V10.9537Z" fill="#231815"/>
<path d="M146.998 11.3625C147.589 10.8305 148.243 10.4347 148.958 10.172C149.673 9.90918 150.447 9.77942 151.279 9.77942C151.877 9.77942 152.41 9.87674 152.885 10.0714C153.356 10.266 153.756 10.5353 154.085 10.8824C154.413 11.2295 154.667 11.6415 154.842 12.1249C155.018 12.605 155.105 13.1306 155.105 13.7016V20.0081H153.877C153.623 20.0081 153.428 19.9724 153.298 19.9011C153.165 19.8297 153.054 19.6805 152.97 19.4534L152.755 18.811C152.501 19.0316 152.254 19.2263 152.017 19.395C151.78 19.5637 151.536 19.7064 151.279 19.82C151.026 19.9335 150.752 20.0179 150.466 20.0763C150.177 20.1347 149.852 20.1638 149.498 20.1638C149.055 20.1638 148.652 20.1055 148.288 19.9887C147.924 19.8719 147.612 19.6999 147.346 19.4696C147.079 19.2393 146.877 18.9538 146.734 18.6067C146.591 18.2628 146.52 17.867 146.52 17.4193C146.52 17.0495 146.614 16.6797 146.803 16.3098C146.991 15.94 147.316 15.6059 147.775 15.3042C148.233 15.0025 148.844 14.7527 149.608 14.5548C150.372 14.3569 151.328 14.2433 152.479 14.2174V13.7016C152.479 13.0722 152.345 12.6115 152.079 12.3163C151.812 12.0211 151.429 11.8719 150.928 11.8719C150.557 11.8719 150.249 11.9141 150.002 12.0049C149.754 12.0925 149.537 12.1866 149.351 12.2871C149.166 12.3877 148.99 12.4818 148.831 12.5694C148.669 12.657 148.48 12.7024 148.266 12.7024C148.077 12.7024 147.921 12.657 147.791 12.5629C147.664 12.4688 147.557 12.3585 147.476 12.2255L146.998 11.369V11.3625ZM152.479 15.8102C151.822 15.8427 151.276 15.9011 150.84 15.9822C150.405 16.0633 150.06 16.1703 149.803 16.2969C149.546 16.4266 149.364 16.5759 149.257 16.7413C149.15 16.9068 149.098 17.0884 149.098 17.2831C149.098 17.6724 149.205 17.9481 149.423 18.1103C149.641 18.2725 149.943 18.3536 150.336 18.3536C150.785 18.3536 151.172 18.2758 151.5 18.1168C151.829 17.9578 152.154 17.7113 152.479 17.3739V15.8167V15.8102Z" fill="#231815"/>
<path d="M160.3 7.11922C160.3 7.34631 160.255 7.55718 160.164 7.75182C160.073 7.94647 159.949 8.11841 159.8 8.26764C159.647 8.41687 159.468 8.53366 159.263 8.618C159.059 8.70235 158.841 8.74452 158.607 8.74452C158.386 8.74452 158.174 8.70235 157.976 8.618C157.778 8.53366 157.602 8.41687 157.456 8.26764C157.306 8.11841 157.189 7.94647 157.102 7.75182C157.014 7.55718 156.968 7.34631 156.968 7.11922C156.968 6.89213 157.014 6.68126 157.102 6.48337C157.189 6.28548 157.306 6.11354 157.456 5.96431C157.605 5.81508 157.778 5.69829 157.976 5.61395C158.174 5.5296 158.382 5.48743 158.607 5.48743C158.841 5.48743 159.062 5.5296 159.263 5.61395C159.468 5.69829 159.647 5.81508 159.8 5.96431C159.953 6.11354 160.073 6.28872 160.164 6.48337C160.255 6.68126 160.3 6.89538 160.3 7.11922ZM159.979 9.9708V20.0049H157.287V9.9708H159.979Z" fill="#231815"/>
<path d="M164.777 11.1387C164.978 10.944 165.187 10.7656 165.408 10.6034C165.625 10.4412 165.856 10.3017 166.1 10.1849C166.344 10.0681 166.607 9.97727 166.89 9.91239C167.173 9.8475 167.478 9.81506 167.81 9.81506C168.356 9.81506 168.841 9.90914 169.263 10.0973C169.686 10.2855 170.043 10.5482 170.333 10.8856C170.622 11.223 170.84 11.6253 170.986 12.0924C171.133 12.5596 171.207 13.0722 171.207 13.6301V20.0048H168.525V13.6301C168.525 13.0722 168.395 12.6407 168.135 12.3325C167.875 12.0243 167.491 11.8718 166.984 11.8718C166.607 11.8718 166.253 11.9529 165.921 12.1151C165.59 12.2774 165.274 12.5044 164.975 12.7964V20.0081H162.283V9.97403H163.941C164.28 9.97403 164.504 10.1297 164.614 10.4412L164.78 11.1419L164.777 11.1387Z" fill="#231815"/>
<path d="M187.979 16.5304C188.141 16.5304 188.278 16.5888 188.388 16.7056L189.549 17.9416C188.977 18.6683 188.268 19.2198 187.42 19.5961C186.571 19.9724 185.56 20.1606 184.393 20.1606C183.333 20.1606 182.381 19.9821 181.536 19.6188C180.69 19.2587 179.972 18.7591 179.38 18.1168C178.788 17.4744 178.333 16.7121 178.015 15.8297C177.696 14.9473 177.537 13.9838 177.537 12.9392C177.537 12.2384 177.612 11.5734 177.768 10.9375C177.92 10.3049 178.145 9.72099 178.437 9.1922C178.73 8.66341 179.081 8.18003 179.494 7.75181C179.907 7.32358 180.372 6.96024 180.895 6.6553C181.415 6.35359 181.981 6.12326 182.595 5.9643C183.21 5.80534 183.863 5.72748 184.559 5.72748C185.079 5.72748 185.57 5.7729 186.035 5.86373C186.5 5.95457 186.932 6.08109 187.338 6.24329C187.742 6.4055 188.112 6.60339 188.454 6.83048C188.795 7.06081 189.104 7.31385 189.377 7.58636L188.392 8.92942C188.333 9.01377 188.258 9.08839 188.167 9.15327C188.076 9.21815 187.953 9.25059 187.797 9.25059C187.641 9.25059 187.485 9.19544 187.322 9.08514C187.16 8.97484 186.968 8.85157 186.737 8.71531C186.506 8.57906 186.217 8.45578 185.869 8.34548C185.521 8.23518 185.079 8.18003 184.549 8.18003C183.957 8.18003 183.415 8.28709 182.92 8.5012C182.426 8.71531 182 9.02675 181.646 9.42902C181.292 9.83453 181.015 10.3341 180.824 10.9246C180.629 11.515 180.531 12.1865 180.531 12.9392C180.531 13.6918 180.638 14.3731 180.85 14.9667C181.061 15.5604 181.35 16.0632 181.718 16.4688C182.085 16.8775 182.514 17.189 183.005 17.3998C183.496 17.6107 184.019 17.7177 184.582 17.7177C184.913 17.7177 185.212 17.7015 185.482 17.6691C185.752 17.6366 186.002 17.5815 186.233 17.5036C186.464 17.4258 186.682 17.3252 186.887 17.2019C187.091 17.0787 187.296 16.9229 187.504 16.7348C187.576 16.6764 187.651 16.6277 187.729 16.5888C187.807 16.5499 187.891 16.5304 187.982 16.5304H187.979Z" fill="#231815"/>
<path d="M193.538 5.4939V20.0048H190.846V5.4939H193.538Z" fill="#231815"/>
<path d="M200.316 9.81506C201.07 9.81506 201.756 9.9351 202.374 10.1752C202.992 10.4152 203.522 10.7559 203.964 11.2035C204.406 11.648 204.747 12.1898 204.988 12.8224C205.228 13.4582 205.349 14.1752 205.349 14.9732C205.349 15.7713 205.228 16.4882 204.988 17.1273C204.747 17.7664 204.406 18.3082 203.964 18.7591C203.522 19.2068 202.992 19.5507 202.374 19.7907C201.756 20.0308 201.07 20.1508 200.316 20.1508C199.562 20.1508 198.863 20.0308 198.242 19.7907C197.621 19.5507 197.088 19.2068 196.646 18.7591C196.204 18.3114 195.859 17.7664 195.615 17.1273C195.372 16.4882 195.251 15.7713 195.251 14.9732C195.251 14.1752 195.375 13.4582 195.615 12.8224C195.859 12.1865 196.201 11.648 196.646 11.2035C197.088 10.7591 197.621 10.4152 198.242 10.1752C198.863 9.9351 199.552 9.81506 200.316 9.81506ZM200.316 18.1362C201.083 18.1362 201.652 17.8702 202.023 17.3414C202.394 16.8126 202.579 16.0276 202.579 14.9797C202.579 13.9319 202.394 13.1598 202.023 12.6277C201.652 12.0989 201.083 11.8361 200.316 11.8361C199.549 11.8361 198.951 12.0989 198.58 12.6277C198.21 13.1565 198.024 13.9416 198.024 14.9797C198.024 16.0178 198.21 16.8126 198.58 17.3414C198.951 17.8702 199.529 18.1362 200.316 18.1362Z" fill="#231815"/>
<path d="M215.872 9.97083V20.0049H214.214C213.869 20.0049 213.648 19.8492 213.551 19.5377L213.375 18.837C213.174 19.0317 212.966 19.2101 212.751 19.3723C212.537 19.5345 212.306 19.674 212.062 19.7908C211.818 19.9076 211.555 19.9984 211.272 20.0633C210.989 20.1282 210.684 20.1606 210.352 20.1606C209.806 20.1606 209.318 20.0665 208.896 19.8784C208.47 19.6902 208.112 19.4274 207.826 19.09C207.54 18.7527 207.322 18.3504 207.173 17.8832C207.023 17.4161 206.948 16.9035 206.948 16.3455V9.97083H209.64V16.3455C209.64 16.9035 209.77 17.3382 210.027 17.6432C210.284 17.9514 210.664 18.1038 211.171 18.1038C211.548 18.1038 211.903 18.0227 212.234 17.8573C212.566 17.6918 212.881 17.4647 213.18 17.1825V9.97083H215.872Z" fill="#231815"/>
<path d="M227 5.4939V20.0048H225.342C224.997 20.0048 224.776 19.8491 224.679 19.5377L224.455 18.6618C224.253 18.8824 224.042 19.0835 223.817 19.2652C223.593 19.4469 223.349 19.6026 223.089 19.7388C222.829 19.8751 222.549 19.9756 222.25 20.047C221.951 20.1184 221.626 20.1541 221.275 20.1541C220.735 20.1541 220.241 20.0405 219.793 19.8134C219.344 19.5864 218.954 19.2555 218.629 18.8175C218.301 18.3795 218.044 17.8443 217.865 17.2052C217.683 16.5693 217.592 15.8426 217.592 15.0251C217.592 14.279 217.693 13.5847 217.901 12.9424C218.105 12.3001 218.395 11.7453 218.775 11.2782C219.152 10.811 219.607 10.4444 220.141 10.1784C220.674 9.91239 221.265 9.77938 221.916 9.77938C222.462 9.77938 222.92 9.86048 223.297 10.0227C223.671 10.1849 224.009 10.4055 224.315 10.6845V5.49714H227.007L227 5.4939ZM224.308 12.5791C224.055 12.2871 223.782 12.0827 223.486 11.9659C223.19 11.8491 222.875 11.7907 222.543 11.7907C222.211 11.7907 221.922 11.8524 221.655 11.9756C221.389 12.0989 221.158 12.2903 220.966 12.5563C220.774 12.8191 220.625 13.1533 220.524 13.562C220.42 13.9708 220.368 14.4574 220.368 15.0219C220.368 15.5864 220.41 16.0535 220.495 16.4428C220.579 16.8321 220.7 17.1468 220.859 17.3868C221.018 17.6269 221.21 17.8021 221.441 17.9091C221.668 18.0162 221.922 18.0681 222.202 18.0681C222.676 18.0681 223.076 17.974 223.398 17.7859C223.72 17.5977 224.022 17.3317 224.308 16.9878V12.5791Z" fill="#231815"/>
<path d="M27.9873 4.19954L20.5979 0.00164795L14.0668 3.80376L7.38288 0.00164795L0 4.19954V12.6959L6.56364 16.5175V19.6999L13.9465 23.9984L21.3294 19.6999V16.6602L27.9841 12.7867V4.19954H27.9873ZM19.6909 14.6618L14.86 11.8492V9.34147L19.6909 12.1541V14.6618ZM1.64172 11.7583V5.15331L7.38288 1.88973L13.1273 5.15331V7.39175L6.56364 11.2133V14.6261L1.64172 11.7616V11.7583ZM13.1273 9.28632V11.7583L8.20537 14.6229V12.1509L13.1273 9.28632ZM13.9465 22.1038L8.20212 18.7591V16.5142L13.914 13.189L19.6909 16.5499V18.7559L13.9465 22.1006V22.1038ZM26.3456 11.8492L21.3327 14.7689V11.2133L14.86 7.4469V5.2409L20.6077 1.89621L26.3456 5.15655V11.8524V11.8492Z" fill="#007BBB"/>
</svg>
