<svg width="178" height="24" viewBox="0 0 178 24" fill="none" xmlns="http://www.w3.org/2000/svg">
<path d="M44.0259 12.8126H48.8746V18.6423C48.1541 19.1679 47.3849 19.5539 46.5703 19.7972C45.7557 20.0405 44.8924 20.1606 43.987 20.1606C42.8251 20.1606 41.7736 19.9789 40.8324 19.6188C39.8912 19.2587 39.0863 18.7591 38.4178 18.1168C37.7492 17.4744 37.2332 16.7121 36.8697 15.8297C36.5062 14.9473 36.3245 13.9838 36.3245 12.9392C36.3245 11.8946 36.4997 10.9116 36.847 10.0292C37.1942 9.14678 37.6875 8.38766 38.3301 7.75181C38.9727 7.11596 39.7516 6.61961 40.6636 6.26276C41.5756 5.9059 42.5979 5.72748 43.7273 5.72748C44.3115 5.72748 44.8567 5.77614 45.363 5.86698C45.8693 5.96105 46.3367 6.09082 46.7651 6.25627C47.1934 6.42172 47.5862 6.61961 47.9431 6.84346C48.3001 7.07054 48.6247 7.32034 48.9168 7.59285L48.0697 8.89698C47.9399 9.10461 47.7711 9.23113 47.5634 9.27655C47.3557 9.32196 47.1285 9.27006 46.8819 9.12083C46.6482 8.97809 46.421 8.85157 46.1971 8.73478C45.9732 8.62123 45.7362 8.52391 45.4799 8.43632C45.2267 8.35197 44.9509 8.28709 44.6523 8.24167C44.3537 8.19625 44.0097 8.17354 43.6202 8.17354C42.9646 8.17354 42.3707 8.28709 41.8385 8.51418C41.3062 8.74127 40.8519 9.06243 40.4786 9.47768C40.1054 9.89293 39.8166 10.3925 39.6153 10.9765C39.4141 11.5604 39.3135 12.2125 39.3135 12.9327C39.3135 13.7113 39.4239 14.4055 39.6446 15.0186C39.8652 15.6318 40.1768 16.1508 40.5792 16.5726C40.9817 16.9943 41.462 17.3155 42.0267 17.5361C42.5882 17.7567 43.2113 17.867 43.8993 17.867C44.3667 17.867 44.7821 17.8183 45.1488 17.7242C45.5156 17.6302 45.8726 17.5004 46.2231 17.3382V14.9635H44.6263C44.4381 14.9635 44.2888 14.9148 44.1817 14.811C44.0746 14.7104 44.0227 14.5807 44.0227 14.425V12.7997L44.0259 12.8126Z" fill="#231815"/>
<path d="M50.5103 18.5937C50.5103 18.3796 50.5492 18.1784 50.6336 17.9838C50.7147 17.7924 50.8251 17.6269 50.9711 17.4874C51.1139 17.3479 51.2794 17.2376 51.4709 17.1565C51.6624 17.0754 51.8701 17.0333 52.1005 17.0333C52.3309 17.0333 52.5289 17.0722 52.7236 17.1565C52.9184 17.2409 53.0871 17.3479 53.2299 17.4874C53.3727 17.6269 53.4831 17.7924 53.5642 17.9838C53.6454 18.1752 53.6875 18.3796 53.6875 18.5937C53.6875 18.8078 53.6486 19.0187 53.5642 19.2068C53.4798 19.395 53.3695 19.5572 53.2299 19.6999C53.0871 19.8394 52.9184 19.9465 52.7236 20.0243C52.5289 20.1022 52.3212 20.1411 52.1005 20.1411C51.8798 20.1411 51.6624 20.1022 51.4709 20.0243C51.2794 19.9465 51.1107 19.8394 50.9711 19.6999C50.8283 19.5604 50.7147 19.395 50.6336 19.2068C50.5524 19.0187 50.5103 18.8143 50.5103 18.5937Z" fill="#231815"/>
<path d="M61.3566 17.6691C61.8304 17.6691 62.2556 17.5913 62.632 17.4323C63.0085 17.2733 63.3266 17.0462 63.5862 16.7575C63.8458 16.4656 64.0438 16.1119 64.1801 15.6967C64.3164 15.2814 64.3846 14.8143 64.3846 14.2952V5.88647H67.3055V14.2952C67.3055 15.1517 67.1659 15.9368 66.8933 16.6537C66.6174 17.3707 66.2215 17.9903 65.7087 18.5061C65.1959 19.0252 64.5728 19.4307 63.8393 19.7226C63.1059 20.0146 62.2783 20.1606 61.3566 20.1606C60.4349 20.1606 59.604 20.0146 58.8673 19.7226C58.1306 19.4307 57.5042 19.0252 56.9947 18.5061C56.4819 17.987 56.0892 17.3707 55.8101 16.6537C55.531 15.9368 55.3979 15.1484 55.3979 14.2952V5.88647H58.3188V14.2952C58.3188 14.8143 58.387 15.2814 58.5233 15.6967C58.6596 16.1119 58.8576 16.4656 59.1172 16.7575C59.3769 17.0495 59.6949 17.2766 60.0714 17.4323C60.4479 17.5913 60.8763 17.6691 61.3566 17.6691Z" fill="#231815"/>
<path d="M69.019 18.5937C69.019 18.3796 69.058 18.1784 69.1424 17.9838C69.2235 17.7924 69.3339 17.6269 69.4799 17.4874C69.6227 17.3479 69.7882 17.2376 69.9797 17.1565C70.1712 17.0754 70.3789 17.0333 70.6093 17.0333C70.8397 17.0333 71.0377 17.0722 71.2324 17.1565C71.4272 17.2409 71.5959 17.3479 71.7387 17.4874C71.8815 17.6269 71.9919 17.7924 72.073 17.9838C72.1541 18.1752 72.1963 18.3796 72.1963 18.5937C72.1963 18.8078 72.1574 19.0187 72.073 19.2068C71.9886 19.395 71.8783 19.5572 71.7387 19.6999C71.5959 19.8394 71.4272 19.9465 71.2324 20.0243C71.0377 20.1022 70.83 20.1411 70.6093 20.1411C70.3886 20.1411 70.1712 20.1022 69.9797 20.0243C69.7882 19.9465 69.6194 19.8394 69.4799 19.6999C69.3371 19.5604 69.2235 19.395 69.1424 19.2068C69.0612 19.0187 69.019 18.8143 69.019 18.5937Z" fill="#231815"/>
<path d="M88.6475 16.5304C88.8098 16.5304 88.9461 16.5888 89.0564 16.7056L90.2151 17.9416C89.6439 18.6683 88.9364 19.2198 88.0893 19.5961C87.2422 19.9724 86.2329 20.1606 85.0678 20.1606C84.0098 20.1606 83.0589 19.9789 82.215 19.6188C81.3712 19.2587 80.654 18.7591 80.0633 18.1168C79.4726 17.4744 79.0183 16.7121 78.7002 15.8297C78.3822 14.9473 78.2231 13.9838 78.2231 12.9392C78.2231 12.2384 78.2978 11.5701 78.4536 10.9375C78.6061 10.3049 78.83 9.721 79.1221 9.18896C79.4142 8.65693 79.7647 8.1768 80.1769 7.74857C80.5891 7.32035 81.0532 6.95701 81.5757 6.65206C82.095 6.35036 82.6597 6.12003 83.2731 5.96106C83.8864 5.8021 84.5388 5.72424 85.2333 5.72424C85.7526 5.72424 86.2426 5.76966 86.7067 5.8605C87.1708 5.95133 87.6025 6.07785 88.0082 6.24006C88.4106 6.40226 88.7806 6.60016 89.1213 6.82724C89.4621 7.05758 89.7704 7.30737 90.0431 7.58312L89.0597 8.92619C89.0013 9.01054 88.9266 9.08515 88.8357 9.15003C88.7449 9.21492 88.6215 9.24736 88.4658 9.24736C88.31 9.24736 88.1542 9.19221 87.9919 9.08191C87.8329 8.97161 87.6382 8.84833 87.4077 8.71208C87.1773 8.57582 86.8885 8.45255 86.5412 8.34225C86.194 8.23195 85.7526 8.1768 85.2236 8.1768C84.6329 8.1768 84.0909 8.28385 83.5976 8.49797C83.1043 8.71208 82.6791 9.02351 82.3254 9.42578C81.9716 9.8313 81.6958 10.3309 81.5043 10.9181C81.3096 11.5085 81.2122 12.18 81.2122 12.9327C81.2122 13.6853 81.3193 14.3666 81.5303 14.9603C81.7412 15.5539 82.03 16.0568 82.3968 16.4623C82.7635 16.871 83.1919 17.1825 83.682 17.3933C84.172 17.6042 84.6946 17.7113 85.256 17.7113C85.5871 17.7113 85.8856 17.695 86.155 17.6626C86.4244 17.6302 86.6743 17.575 86.9047 17.4972C87.1351 17.4193 87.3526 17.3187 87.557 17.1955C87.7615 17.0722 87.966 16.9165 88.1737 16.7283C88.2451 16.6699 88.3197 16.6212 88.3976 16.5823C88.4755 16.5434 88.5599 16.5239 88.6508 16.5239L88.6475 16.5304Z" fill="#231815"/>
<path d="M95.8037 9.81506C96.5567 9.81506 97.2414 9.9351 97.8581 10.1752C98.4747 10.4152 99.0037 10.7559 99.4451 11.2035C99.8865 11.648 100.227 12.1898 100.467 12.8224C100.708 13.4582 100.828 14.1752 100.828 14.9732C100.828 15.7713 100.708 16.4915 100.467 17.1273C100.227 17.7664 99.8865 18.3114 99.4451 18.7591C99.0037 19.2068 98.4747 19.5507 97.8581 19.7907C97.2414 20.0308 96.5567 20.1508 95.8037 20.1508C95.0508 20.1508 94.353 20.0308 93.7331 19.7907C93.1132 19.5507 92.581 19.2068 92.1396 18.7591C91.6982 18.3114 91.3542 17.7664 91.1108 17.1273C90.8674 16.4882 90.7473 15.7713 90.7473 14.9732C90.7473 14.1752 90.8706 13.4582 91.1108 12.8224C91.3542 12.1865 91.695 11.648 92.1396 11.2035C92.581 10.7591 93.1132 10.4152 93.7331 10.1752C94.353 9.9351 95.041 9.81506 95.8037 9.81506ZM95.8037 18.1362C96.5696 18.1362 97.1376 17.8735 97.5076 17.3414C97.8776 16.8126 98.0625 16.0276 98.0625 14.9829C98.0625 13.9383 97.8776 13.163 97.5076 12.631C97.1376 12.1022 96.5696 11.8394 95.8037 11.8394C95.0378 11.8394 94.4406 12.1022 94.0706 12.631C93.7007 13.1598 93.5157 13.9448 93.5157 14.9829C93.5157 16.0211 93.7007 16.8159 94.0706 17.3414C94.4406 17.8702 95.0183 18.1362 95.8037 18.1362Z" fill="#231815"/>
<path d="M105.608 7.11922C105.608 7.34631 105.563 7.55718 105.472 7.75182C105.381 7.94647 105.258 8.11841 105.109 8.26764C104.956 8.41687 104.777 8.53366 104.573 8.618C104.369 8.70235 104.151 8.74452 103.917 8.74452C103.697 8.74452 103.486 8.70235 103.288 8.618C103.09 8.53366 102.915 8.41687 102.769 8.26764C102.619 8.11841 102.502 7.94647 102.415 7.75182C102.327 7.55718 102.282 7.34631 102.282 7.11922C102.282 6.89213 102.327 6.68126 102.415 6.48337C102.502 6.28548 102.619 6.11354 102.769 5.96431C102.918 5.81508 103.09 5.69829 103.288 5.61395C103.486 5.5296 103.694 5.48743 103.917 5.48743C104.151 5.48743 104.372 5.5296 104.573 5.61395C104.777 5.69829 104.956 5.81508 105.109 5.96431C105.261 6.11354 105.381 6.28872 105.472 6.48337C105.563 6.68126 105.608 6.89538 105.608 7.11922ZM105.287 9.9708V20.0049H102.6V9.9708H105.287Z" fill="#231815"/>
<path d="M110.077 11.1387C110.278 10.944 110.486 10.7656 110.707 10.6034C110.924 10.4412 111.155 10.3017 111.398 10.1849C111.641 10.0681 111.904 9.97727 112.187 9.91239C112.469 9.8475 112.774 9.81506 113.105 9.81506C113.65 9.81506 114.134 9.90914 114.556 10.0973C114.978 10.2855 115.335 10.5482 115.624 10.8856C115.912 11.223 116.13 11.6253 116.276 12.0924C116.422 12.5596 116.497 13.0722 116.497 13.6301V20.0048H113.819V13.6301C113.819 13.0722 113.689 12.6374 113.43 12.3325C113.17 12.0243 112.787 11.8686 112.281 11.8686C111.904 11.8686 111.551 11.9497 111.22 12.1119C110.889 12.2741 110.574 12.5012 110.275 12.7932V20.0048H107.588V9.97078H109.243C109.581 9.97078 109.805 10.1265 109.915 10.4379L110.08 11.1387H110.077Z" fill="#231815"/>
<path d="M131.273 8.58878C131.182 8.73801 131.088 8.84507 130.997 8.91319C130.903 8.98132 130.78 9.01376 130.634 9.01376C130.488 9.01376 130.335 8.9651 130.17 8.86453C130.004 8.76396 129.813 8.65366 129.592 8.54012C129.371 8.42333 129.118 8.31628 128.832 8.21246C128.547 8.1119 128.213 8.06324 127.83 8.06324C127.155 8.06324 126.648 8.21246 126.311 8.51741C125.973 8.82236 125.804 9.2149 125.804 9.70152C125.804 10.013 125.899 10.2692 126.08 10.4769C126.265 10.6812 126.509 10.8564 126.811 11.0057C127.112 11.1549 127.453 11.2879 127.839 11.4047C128.226 11.5215 128.615 11.6512 129.017 11.7907C129.42 11.9302 129.813 12.0957 130.196 12.2838C130.579 12.472 130.919 12.7088 131.224 12.9943C131.526 13.2798 131.77 13.6301 131.955 14.0421C132.14 14.4542 132.23 14.9537 132.23 15.5442C132.23 16.1865 132.117 16.7899 131.893 17.3479C131.669 17.9091 131.344 18.399 130.926 18.8175C130.504 19.236 129.981 19.5669 129.365 19.8037C128.745 20.0438 128.041 20.1638 127.255 20.1638C126.807 20.1638 126.359 20.1184 125.918 20.0275C125.473 19.9367 125.045 19.8102 124.633 19.648C124.221 19.4858 123.831 19.2911 123.471 19.064C123.108 18.837 122.789 18.5839 122.517 18.3049L123.374 16.9229C123.445 16.8191 123.539 16.7315 123.656 16.6634C123.773 16.5953 123.896 16.5628 124.026 16.5628C124.201 16.5628 124.386 16.6277 124.581 16.7575C124.776 16.8872 125 17.03 125.253 17.1857C125.506 17.3414 125.801 17.4842 126.136 17.6139C126.47 17.7437 126.869 17.8086 127.34 17.8086C128.021 17.8086 128.547 17.6529 128.923 17.3414C129.297 17.03 129.482 16.5661 129.482 15.9497C129.482 15.5928 129.391 15.3041 129.206 15.0835C129.021 14.8629 128.781 14.678 128.482 14.5288C128.183 14.3795 127.843 14.253 127.46 14.1427C127.077 14.0357 126.684 13.9189 126.282 13.7891C125.879 13.6593 125.486 13.5036 125.103 13.322C124.721 13.1403 124.38 12.9002 124.081 12.6018C123.783 12.3033 123.539 11.9335 123.357 11.4923C123.172 11.0511 123.082 10.5028 123.082 9.8475C123.082 9.32195 123.185 8.81263 123.393 8.31952C123.601 7.82641 123.906 7.38846 124.308 7.00565C124.711 6.62285 125.204 6.31465 125.795 6.08108C126.382 5.8475 127.054 5.73071 127.817 5.73071C128.667 5.73071 129.452 5.86048 130.176 6.12325C130.9 6.38603 131.51 6.75261 132.01 7.21976L131.289 8.59203L131.273 8.58878Z" fill="#231815"/>
<path d="M137.018 20.1606C136.563 20.1606 136.161 20.0924 135.81 19.9627C135.46 19.8297 135.164 19.6382 134.924 19.3917C134.684 19.1451 134.502 18.8467 134.379 18.4963C134.256 18.146 134.194 17.7502 134.194 17.309V11.8978H133.25C133.107 11.8978 132.984 11.8524 132.886 11.7615C132.786 11.6707 132.734 11.5344 132.734 11.3528V10.3017L134.34 10.0097L134.885 7.41116C134.957 7.11919 135.155 6.97321 135.479 6.97321H136.881V10.0292H139.471V11.8978H136.881V17.1338C136.881 17.4128 136.946 17.6334 137.079 17.7956C137.212 17.9578 137.401 18.0389 137.647 18.0389C137.777 18.0389 137.887 18.0259 137.978 17.9967C138.069 17.9675 138.147 17.9351 138.212 17.8994C138.277 17.8637 138.335 17.8313 138.394 17.8021C138.449 17.7729 138.504 17.7567 138.562 17.7567C138.64 17.7567 138.705 17.7761 138.757 17.8118C138.809 17.8475 138.861 17.9091 138.913 17.9935L139.721 19.2782C139.351 19.5701 138.932 19.7907 138.465 19.94C137.998 20.0892 137.514 20.1638 137.014 20.1638L137.018 20.1606Z" fill="#231815"/>
<path d="M149.714 9.97077V20.0048H148.059C147.714 20.0048 147.494 19.8491 147.396 19.5377L147.221 18.837C147.02 19.0316 146.812 19.21 146.598 19.3722C146.384 19.5344 146.153 19.6739 145.91 19.7907C145.667 19.9075 145.404 19.9983 145.121 20.0632C144.839 20.1281 144.534 20.1606 144.203 20.1606C143.658 20.1606 143.171 20.0665 142.749 19.8783C142.324 19.6902 141.967 19.4274 141.681 19.09C141.396 18.7526 141.178 18.3503 141.029 17.8832C140.88 17.416 140.805 16.9035 140.805 16.3455V9.97077H143.492V16.3455C143.492 16.9035 143.622 17.3382 143.878 17.6431C144.135 17.9513 144.514 18.1038 145.021 18.1038C145.397 18.1038 145.751 18.0227 146.082 17.854C146.413 17.6885 146.728 17.4647 147.026 17.1792V9.96753H149.714V9.97077Z" fill="#231815"/>
<path d="M160.823 5.4939V20.0048H159.168C158.824 20.0048 158.603 19.8491 158.506 19.5377L158.282 18.6618C158.081 18.8824 157.87 19.0835 157.646 19.2652C157.422 19.4469 157.178 19.6026 156.919 19.7356C156.659 19.8686 156.38 19.9724 156.081 20.0438C155.783 20.1151 155.458 20.1508 155.108 20.1508C154.569 20.1508 154.076 20.0373 153.628 19.8102C153.18 19.5831 152.791 19.249 152.466 18.8143C152.138 18.3763 151.882 17.841 151.703 17.2019C151.522 16.5661 151.431 15.8394 151.431 15.0219C151.431 14.2757 151.531 13.5815 151.739 12.9392C151.943 12.2968 152.232 11.7421 152.612 11.2749C152.988 10.8078 153.443 10.4412 153.975 10.1752C154.507 9.90914 155.098 9.77613 155.747 9.77613C156.292 9.77613 156.75 9.85724 157.126 10.0194C157.5 10.1816 157.837 10.4022 158.142 10.6812V5.4939H160.829H160.823ZM158.136 12.5791C157.883 12.2871 157.61 12.0827 157.315 11.9659C157.019 11.8491 156.705 11.7907 156.373 11.7907C156.042 11.7907 155.754 11.8524 155.487 11.9756C155.221 12.0989 154.991 12.2936 154.799 12.5563C154.608 12.8191 154.459 13.1533 154.358 13.562C154.254 13.9708 154.202 14.4574 154.202 15.0219C154.202 15.5864 154.244 16.0535 154.329 16.4428C154.413 16.8321 154.533 17.1468 154.692 17.3868C154.851 17.6269 155.043 17.7988 155.273 17.9059C155.5 18.013 155.754 18.0649 156.033 18.0649C156.507 18.0649 156.906 17.9708 157.227 17.7826C157.548 17.5945 157.85 17.3284 158.136 16.9846V12.5758V12.5791Z" fill="#231815"/>
<path d="M166.139 7.11922C166.139 7.34631 166.094 7.55718 166.003 7.75182C165.912 7.94647 165.789 8.11841 165.639 8.26764C165.487 8.41687 165.308 8.53366 165.104 8.618C164.899 8.70235 164.682 8.74452 164.448 8.74452C164.228 8.74452 164.017 8.70235 163.819 8.618C163.621 8.53366 163.445 8.41687 163.299 8.26764C163.15 8.11841 163.033 7.94647 162.946 7.75182C162.858 7.55718 162.812 7.34631 162.812 7.11922C162.812 6.89213 162.858 6.68126 162.946 6.48337C163.033 6.28548 163.15 6.11354 163.299 5.96431C163.449 5.81508 163.621 5.69829 163.819 5.61395C164.017 5.5296 164.224 5.48743 164.448 5.48743C164.682 5.48743 164.903 5.5296 165.104 5.61395C165.308 5.69829 165.487 5.81508 165.639 5.96431C165.792 6.11354 165.912 6.28872 166.003 6.48337C166.094 6.68126 166.139 6.89538 166.139 7.11922ZM165.818 9.9708V20.0049H163.131V9.9708H165.818Z" fill="#231815"/>
<path d="M172.643 9.81506C173.396 9.81506 174.081 9.9351 174.697 10.1752C175.314 10.4152 175.843 10.7559 176.284 11.2035C176.726 11.648 177.066 12.1898 177.307 12.8224C177.547 13.4582 177.667 14.1752 177.667 14.9732C177.667 15.7713 177.547 16.4915 177.307 17.1273C177.066 17.7664 176.726 18.3114 176.284 18.7591C175.843 19.2068 175.314 19.5507 174.697 19.7907C174.081 20.0308 173.396 20.1508 172.643 20.1508C171.89 20.1508 171.192 20.0308 170.572 19.7907C169.952 19.5507 169.42 19.2068 168.979 18.7591C168.537 18.3114 168.193 17.7664 167.95 17.1273C167.707 16.4882 167.586 15.7713 167.586 14.9732C167.586 14.1752 167.71 13.4582 167.95 12.8224C168.193 12.1865 168.534 11.648 168.979 11.2035C169.42 10.7591 169.952 10.4152 170.572 10.1752C171.192 9.9351 171.88 9.81506 172.643 9.81506ZM172.643 18.1362C173.409 18.1362 173.977 17.8735 174.347 17.3414C174.717 16.8126 174.902 16.0276 174.902 14.9829C174.902 13.9383 174.717 13.163 174.347 12.631C173.977 12.1022 173.409 11.8394 172.643 11.8394C171.877 11.8394 171.28 12.1022 170.91 12.631C170.54 13.1598 170.355 13.9448 170.355 14.9829C170.355 16.0211 170.54 16.8159 170.91 17.3414C171.28 17.8702 171.857 18.1362 172.643 18.1362Z" fill="#231815"/>
<path d="M44.0259 12.8126H48.8746V18.6423C48.1541 19.1679 47.3849 19.5539 46.5703 19.7972C45.7557 20.0405 44.8924 20.1606 43.987 20.1606C42.8251 20.1606 41.7736 19.9789 40.8324 19.6188C39.8912 19.2587 39.0863 18.7591 38.4178 18.1168C37.7492 17.4744 37.2332 16.7121 36.8697 15.8297C36.5062 14.9473 36.3245 13.9838 36.3245 12.9392C36.3245 11.8946 36.4997 10.9116 36.847 10.0292C37.1942 9.14678 37.6875 8.38766 38.3301 7.75181C38.9727 7.11596 39.7516 6.61961 40.6636 6.26276C41.5756 5.9059 42.5979 5.72748 43.7273 5.72748C44.3115 5.72748 44.8567 5.77614 45.363 5.86698C45.8693 5.96105 46.3367 6.09082 46.7651 6.25627C47.1934 6.42172 47.5862 6.61961 47.9431 6.84346C48.3001 7.07054 48.6247 7.32034 48.9168 7.59285L48.0697 8.89698C47.9399 9.10461 47.7711 9.23113 47.5634 9.27655C47.3557 9.32196 47.1285 9.27006 46.8819 9.12083C46.6482 8.97809 46.421 8.85157 46.1971 8.73478C45.9732 8.62123 45.7362 8.52391 45.4799 8.43632C45.2267 8.35197 44.9509 8.28709 44.6523 8.24167C44.3537 8.19625 44.0097 8.17354 43.6202 8.17354C42.9646 8.17354 42.3707 8.28709 41.8385 8.51418C41.3062 8.74127 40.8519 9.06243 40.4786 9.47768C40.1054 9.89293 39.8166 10.3925 39.6153 10.9765C39.4141 11.5604 39.3135 12.2125 39.3135 12.9327C39.3135 13.7113 39.4239 14.4055 39.6446 15.0186C39.8652 15.6318 40.1768 16.1508 40.5792 16.5726C40.9817 16.9943 41.462 17.3155 42.0267 17.5361C42.5882 17.7567 43.2113 17.867 43.8993 17.867C44.3667 17.867 44.7821 17.8183 45.1488 17.7242C45.5156 17.6302 45.8726 17.5004 46.2231 17.3382V14.9635H44.6263C44.4381 14.9635 44.2888 14.9148 44.1817 14.811C44.0746 14.7104 44.0227 14.5807 44.0227 14.425V12.7997L44.0259 12.8126Z" fill="#231815"/>
<path d="M50.5103 18.5937C50.5103 18.3796 50.5492 18.1784 50.6336 17.9838C50.7147 17.7924 50.8251 17.6269 50.9711 17.4874C51.1139 17.3479 51.2794 17.2376 51.4709 17.1565C51.6624 17.0754 51.8701 17.0333 52.1005 17.0333C52.3309 17.0333 52.5289 17.0722 52.7236 17.1565C52.9184 17.2409 53.0871 17.3479 53.2299 17.4874C53.3727 17.6269 53.4831 17.7924 53.5642 17.9838C53.6454 18.1752 53.6875 18.3796 53.6875 18.5937C53.6875 18.8078 53.6486 19.0187 53.5642 19.2068C53.4798 19.395 53.3695 19.5572 53.2299 19.6999C53.0871 19.8394 52.9184 19.9465 52.7236 20.0243C52.5289 20.1022 52.3212 20.1411 52.1005 20.1411C51.8798 20.1411 51.6624 20.1022 51.4709 20.0243C51.2794 19.9465 51.1107 19.8394 50.9711 19.6999C50.8283 19.5604 50.7147 19.395 50.6336 19.2068C50.5524 19.0187 50.5103 18.8143 50.5103 18.5937Z" fill="#231815"/>
<path d="M61.3566 17.6691C61.8304 17.6691 62.2556 17.5913 62.632 17.4323C63.0085 17.2733 63.3266 17.0462 63.5862 16.7575C63.8458 16.4656 64.0438 16.1119 64.1801 15.6967C64.3164 15.2814 64.3846 14.8143 64.3846 14.2952V5.88647H67.3055V14.2952C67.3055 15.1517 67.1659 15.9368 66.8933 16.6537C66.6174 17.3707 66.2215 17.9903 65.7087 18.5061C65.1959 19.0252 64.5728 19.4307 63.8393 19.7226C63.1059 20.0146 62.2783 20.1606 61.3566 20.1606C60.4349 20.1606 59.604 20.0146 58.8673 19.7226C58.1306 19.4307 57.5042 19.0252 56.9947 18.5061C56.4819 17.987 56.0892 17.3707 55.8101 16.6537C55.531 15.9368 55.3979 15.1484 55.3979 14.2952V5.88647H58.3188V14.2952C58.3188 14.8143 58.387 15.2814 58.5233 15.6967C58.6596 16.1119 58.8576 16.4656 59.1172 16.7575C59.3769 17.0495 59.6949 17.2766 60.0714 17.4323C60.4479 17.5913 60.8763 17.6691 61.3566 17.6691Z" fill="#231815"/>
<path d="M69.019 18.5937C69.019 18.3796 69.058 18.1784 69.1424 17.9838C69.2235 17.7924 69.3339 17.6269 69.4799 17.4874C69.6227 17.3479 69.7882 17.2376 69.9797 17.1565C70.1712 17.0754 70.3789 17.0333 70.6093 17.0333C70.8397 17.0333 71.0377 17.0722 71.2324 17.1565C71.4272 17.2409 71.5959 17.3479 71.7387 17.4874C71.8815 17.6269 71.9919 17.7924 72.073 17.9838C72.1541 18.1752 72.1963 18.3796 72.1963 18.5937C72.1963 18.8078 72.1574 19.0187 72.073 19.2068C71.9886 19.395 71.8783 19.5572 71.7387 19.6999C71.5959 19.8394 71.4272 19.9465 71.2324 20.0243C71.0377 20.1022 70.83 20.1411 70.6093 20.1411C70.3886 20.1411 70.1712 20.1022 69.9797 20.0243C69.7882 19.9465 69.6194 19.8394 69.4799 19.6999C69.3371 19.5604 69.2235 19.395 69.1424 19.2068C69.0612 19.0187 69.019 18.8143 69.019 18.5937Z" fill="#231815"/>
<path d="M88.6475 16.5304C88.8098 16.5304 88.9461 16.5888 89.0564 16.7056L90.2151 17.9416C89.6439 18.6683 88.9364 19.2198 88.0893 19.5961C87.2422 19.9724 86.2329 20.1606 85.0678 20.1606C84.0098 20.1606 83.0589 19.9789 82.215 19.6188C81.3712 19.2587 80.654 18.7591 80.0633 18.1168C79.4726 17.4744 79.0183 16.7121 78.7002 15.8297C78.3822 14.9473 78.2231 13.9838 78.2231 12.9392C78.2231 12.2384 78.2978 11.5701 78.4536 10.9375C78.6061 10.3049 78.83 9.721 79.1221 9.18896C79.4142 8.65693 79.7647 8.1768 80.1769 7.74857C80.5891 7.32035 81.0532 6.95701 81.5757 6.65206C82.095 6.35036 82.6597 6.12003 83.2731 5.96106C83.8864 5.8021 84.5388 5.72424 85.2333 5.72424C85.7526 5.72424 86.2426 5.76966 86.7067 5.8605C87.1708 5.95133 87.6025 6.07785 88.0082 6.24006C88.4106 6.40226 88.7806 6.60016 89.1213 6.82724C89.4621 7.05758 89.7704 7.30737 90.0431 7.58312L89.0597 8.92619C89.0013 9.01054 88.9266 9.08515 88.8357 9.15003C88.7449 9.21492 88.6215 9.24736 88.4658 9.24736C88.31 9.24736 88.1542 9.19221 87.9919 9.08191C87.8329 8.97161 87.6382 8.84833 87.4077 8.71208C87.1773 8.57582 86.8885 8.45255 86.5412 8.34225C86.194 8.23195 85.7526 8.1768 85.2236 8.1768C84.6329 8.1768 84.0909 8.28385 83.5976 8.49797C83.1043 8.71208 82.6791 9.02351 82.3254 9.42578C81.9716 9.8313 81.6958 10.3309 81.5043 10.9181C81.3096 11.5085 81.2122 12.18 81.2122 12.9327C81.2122 13.6853 81.3193 14.3666 81.5303 14.9603C81.7412 15.5539 82.03 16.0568 82.3968 16.4623C82.7635 16.871 83.1919 17.1825 83.682 17.3933C84.172 17.6042 84.6946 17.7113 85.256 17.7113C85.5871 17.7113 85.8856 17.695 86.155 17.6626C86.4244 17.6302 86.6743 17.575 86.9047 17.4972C87.1351 17.4193 87.3526 17.3187 87.557 17.1955C87.7615 17.0722 87.966 16.9165 88.1737 16.7283C88.2451 16.6699 88.3197 16.6212 88.3976 16.5823C88.4755 16.5434 88.5599 16.5239 88.6508 16.5239L88.6475 16.5304Z" fill="#231815"/>
<path d="M95.8037 9.81506C96.5567 9.81506 97.2414 9.9351 97.8581 10.1752C98.4747 10.4152 99.0037 10.7559 99.4451 11.2035C99.8865 11.648 100.227 12.1898 100.467 12.8224C100.708 13.4582 100.828 14.1752 100.828 14.9732C100.828 15.7713 100.708 16.4915 100.467 17.1273C100.227 17.7664 99.8865 18.3114 99.4451 18.7591C99.0037 19.2068 98.4747 19.5507 97.8581 19.7907C97.2414 20.0308 96.5567 20.1508 95.8037 20.1508C95.0508 20.1508 94.353 20.0308 93.7331 19.7907C93.1132 19.5507 92.581 19.2068 92.1396 18.7591C91.6982 18.3114 91.3542 17.7664 91.1108 17.1273C90.8674 16.4882 90.7473 15.7713 90.7473 14.9732C90.7473 14.1752 90.8706 13.4582 91.1108 12.8224C91.3542 12.1865 91.695 11.648 92.1396 11.2035C92.581 10.7591 93.1132 10.4152 93.7331 10.1752C94.353 9.9351 95.041 9.81506 95.8037 9.81506ZM95.8037 18.1362C96.5696 18.1362 97.1376 17.8735 97.5076 17.3414C97.8776 16.8126 98.0625 16.0276 98.0625 14.9829C98.0625 13.9383 97.8776 13.163 97.5076 12.631C97.1376 12.1022 96.5696 11.8394 95.8037 11.8394C95.0378 11.8394 94.4406 12.1022 94.0706 12.631C93.7007 13.1598 93.5157 13.9448 93.5157 14.9829C93.5157 16.0211 93.7007 16.8159 94.0706 17.3414C94.4406 17.8702 95.0183 18.1362 95.8037 18.1362Z" fill="#231815"/>
<path d="M105.608 7.11922C105.608 7.34631 105.563 7.55718 105.472 7.75182C105.381 7.94647 105.258 8.11841 105.109 8.26764C104.956 8.41687 104.777 8.53366 104.573 8.618C104.369 8.70235 104.151 8.74452 103.917 8.74452C103.697 8.74452 103.486 8.70235 103.288 8.618C103.09 8.53366 102.915 8.41687 102.769 8.26764C102.619 8.11841 102.502 7.94647 102.415 7.75182C102.327 7.55718 102.282 7.34631 102.282 7.11922C102.282 6.89213 102.327 6.68126 102.415 6.48337C102.502 6.28548 102.619 6.11354 102.769 5.96431C102.918 5.81508 103.09 5.69829 103.288 5.61395C103.486 5.5296 103.694 5.48743 103.917 5.48743C104.151 5.48743 104.372 5.5296 104.573 5.61395C104.777 5.69829 104.956 5.81508 105.109 5.96431C105.261 6.11354 105.381 6.28872 105.472 6.48337C105.563 6.68126 105.608 6.89538 105.608 7.11922ZM105.287 9.9708V20.0049H102.6V9.9708H105.287Z" fill="#231815"/>
<path d="M110.077 11.1387C110.278 10.944 110.486 10.7656 110.707 10.6034C110.924 10.4412 111.155 10.3017 111.398 10.1849C111.641 10.0681 111.904 9.97727 112.187 9.91239C112.469 9.8475 112.774 9.81506 113.105 9.81506C113.65 9.81506 114.134 9.90914 114.556 10.0973C114.978 10.2855 115.335 10.5482 115.624 10.8856C115.912 11.223 116.13 11.6253 116.276 12.0924C116.422 12.5596 116.497 13.0722 116.497 13.6301V20.0048H113.819V13.6301C113.819 13.0722 113.689 12.6374 113.43 12.3325C113.17 12.0243 112.787 11.8686 112.281 11.8686C111.904 11.8686 111.551 11.9497 111.22 12.1119C110.889 12.2741 110.574 12.5012 110.275 12.7932V20.0048H107.588V9.97078H109.243C109.581 9.97078 109.805 10.1265 109.915 10.4379L110.08 11.1387H110.077Z" fill="#231815"/>
<path d="M131.273 8.58878C131.182 8.73801 131.088 8.84507 130.997 8.91319C130.903 8.98132 130.78 9.01376 130.634 9.01376C130.488 9.01376 130.335 8.9651 130.17 8.86453C130.004 8.76396 129.813 8.65366 129.592 8.54012C129.371 8.42333 129.118 8.31628 128.832 8.21246C128.547 8.1119 128.213 8.06324 127.83 8.06324C127.155 8.06324 126.648 8.21246 126.311 8.51741C125.973 8.82236 125.804 9.2149 125.804 9.70152C125.804 10.013 125.899 10.2692 126.08 10.4769C126.265 10.6812 126.509 10.8564 126.811 11.0057C127.112 11.1549 127.453 11.2879 127.839 11.4047C128.226 11.5215 128.615 11.6512 129.017 11.7907C129.42 11.9302 129.813 12.0957 130.196 12.2838C130.579 12.472 130.919 12.7088 131.224 12.9943C131.526 13.2798 131.77 13.6301 131.955 14.0421C132.14 14.4542 132.23 14.9537 132.23 15.5442C132.23 16.1865 132.117 16.7899 131.893 17.3479C131.669 17.9091 131.344 18.399 130.926 18.8175C130.504 19.236 129.981 19.5669 129.365 19.8037C128.745 20.0438 128.041 20.1638 127.255 20.1638C126.807 20.1638 126.359 20.1184 125.918 20.0275C125.473 19.9367 125.045 19.8102 124.633 19.648C124.221 19.4858 123.831 19.2911 123.471 19.064C123.108 18.837 122.789 18.5839 122.517 18.3049L123.374 16.9229C123.445 16.8191 123.539 16.7315 123.656 16.6634C123.773 16.5953 123.896 16.5628 124.026 16.5628C124.201 16.5628 124.386 16.6277 124.581 16.7575C124.776 16.8872 125 17.03 125.253 17.1857C125.506 17.3414 125.801 17.4842 126.136 17.6139C126.47 17.7437 126.869 17.8086 127.34 17.8086C128.021 17.8086 128.547 17.6529 128.923 17.3414C129.297 17.03 129.482 16.5661 129.482 15.9497C129.482 15.5928 129.391 15.3041 129.206 15.0835C129.021 14.8629 128.781 14.678 128.482 14.5288C128.183 14.3795 127.843 14.253 127.46 14.1427C127.077 14.0357 126.684 13.9189 126.282 13.7891C125.879 13.6593 125.486 13.5036 125.103 13.322C124.721 13.1403 124.38 12.9002 124.081 12.6018C123.783 12.3033 123.539 11.9335 123.357 11.4923C123.172 11.0511 123.082 10.5028 123.082 9.8475C123.082 9.32195 123.185 8.81263 123.393 8.31952C123.601 7.82641 123.906 7.38846 124.308 7.00565C124.711 6.62285 125.204 6.31465 125.795 6.08108C126.382 5.8475 127.054 5.73071 127.817 5.73071C128.667 5.73071 129.452 5.86048 130.176 6.12325C130.9 6.38603 131.51 6.75261 132.01 7.21976L131.289 8.59203L131.273 8.58878Z" fill="#231815"/>
<path d="M137.018 20.1606C136.563 20.1606 136.161 20.0924 135.81 19.9627C135.46 19.8297 135.164 19.6382 134.924 19.3917C134.684 19.1451 134.502 18.8467 134.379 18.4963C134.256 18.146 134.194 17.7502 134.194 17.309V11.8978H133.25C133.107 11.8978 132.984 11.8524 132.886 11.7615C132.786 11.6707 132.734 11.5344 132.734 11.3528V10.3017L134.34 10.0097L134.885 7.41116C134.957 7.11919 135.155 6.97321 135.479 6.97321H136.881V10.0292H139.471V11.8978H136.881V17.1338C136.881 17.4128 136.946 17.6334 137.079 17.7956C137.212 17.9578 137.401 18.0389 137.647 18.0389C137.777 18.0389 137.887 18.0259 137.978 17.9967C138.069 17.9675 138.147 17.9351 138.212 17.8994C138.277 17.8637 138.335 17.8313 138.394 17.8021C138.449 17.7729 138.504 17.7567 138.562 17.7567C138.64 17.7567 138.705 17.7761 138.757 17.8118C138.809 17.8475 138.861 17.9091 138.913 17.9935L139.721 19.2782C139.351 19.5701 138.932 19.7907 138.465 19.94C137.998 20.0892 137.514 20.1638 137.014 20.1638L137.018 20.1606Z" fill="#231815"/>
<path d="M149.714 9.97077V20.0048H148.059C147.714 20.0048 147.494 19.8491 147.396 19.5377L147.221 18.837C147.02 19.0316 146.812 19.21 146.598 19.3722C146.384 19.5344 146.153 19.6739 145.91 19.7907C145.667 19.9075 145.404 19.9983 145.121 20.0632C144.839 20.1281 144.534 20.1606 144.203 20.1606C143.658 20.1606 143.171 20.0665 142.749 19.8783C142.324 19.6902 141.967 19.4274 141.681 19.09C141.396 18.7526 141.178 18.3503 141.029 17.8832C140.88 17.416 140.805 16.9035 140.805 16.3455V9.97077H143.492V16.3455C143.492 16.9035 143.622 17.3382 143.878 17.6431C144.135 17.9513 144.514 18.1038 145.021 18.1038C145.397 18.1038 145.751 18.0227 146.082 17.854C146.413 17.6885 146.728 17.4647 147.026 17.1792V9.96753H149.714V9.97077Z" fill="#231815"/>
<path d="M160.823 5.4939V20.0048H159.168C158.824 20.0048 158.603 19.8491 158.506 19.5377L158.282 18.6618C158.081 18.8824 157.87 19.0835 157.646 19.2652C157.422 19.4469 157.178 19.6026 156.919 19.7356C156.659 19.8686 156.38 19.9724 156.081 20.0438C155.783 20.1151 155.458 20.1508 155.108 20.1508C154.569 20.1508 154.076 20.0373 153.628 19.8102C153.18 19.5831 152.791 19.249 152.466 18.8143C152.138 18.3763 151.882 17.841 151.703 17.2019C151.522 16.5661 151.431 15.8394 151.431 15.0219C151.431 14.2757 151.531 13.5815 151.739 12.9392C151.943 12.2968 152.232 11.7421 152.612 11.2749C152.988 10.8078 153.443 10.4412 153.975 10.1752C154.507 9.90914 155.098 9.77613 155.747 9.77613C156.292 9.77613 156.75 9.85724 157.126 10.0194C157.5 10.1816 157.837 10.4022 158.142 10.6812V5.4939H160.829H160.823ZM158.136 12.5791C157.883 12.2871 157.61 12.0827 157.315 11.9659C157.019 11.8491 156.705 11.7907 156.373 11.7907C156.042 11.7907 155.754 11.8524 155.487 11.9756C155.221 12.0989 154.991 12.2936 154.799 12.5563C154.608 12.8191 154.459 13.1533 154.358 13.562C154.254 13.9708 154.202 14.4574 154.202 15.0219C154.202 15.5864 154.244 16.0535 154.329 16.4428C154.413 16.8321 154.533 17.1468 154.692 17.3868C154.851 17.6269 155.043 17.7988 155.273 17.9059C155.5 18.013 155.754 18.0649 156.033 18.0649C156.507 18.0649 156.906 17.9708 157.227 17.7826C157.548 17.5945 157.85 17.3284 158.136 16.9846V12.5758V12.5791Z" fill="#231815"/>
<path d="M166.139 7.11922C166.139 7.34631 166.094 7.55718 166.003 7.75182C165.912 7.94647 165.789 8.11841 165.639 8.26764C165.487 8.41687 165.308 8.53366 165.104 8.618C164.899 8.70235 164.682 8.74452 164.448 8.74452C164.228 8.74452 164.017 8.70235 163.819 8.618C163.621 8.53366 163.445 8.41687 163.299 8.26764C163.15 8.11841 163.033 7.94647 162.946 7.75182C162.858 7.55718 162.812 7.34631 162.812 7.11922C162.812 6.89213 162.858 6.68126 162.946 6.48337C163.033 6.28548 163.15 6.11354 163.299 5.96431C163.449 5.81508 163.621 5.69829 163.819 5.61395C164.017 5.5296 164.224 5.48743 164.448 5.48743C164.682 5.48743 164.903 5.5296 165.104 5.61395C165.308 5.69829 165.487 5.81508 165.639 5.96431C165.792 6.11354 165.912 6.28872 166.003 6.48337C166.094 6.68126 166.139 6.89538 166.139 7.11922ZM165.818 9.9708V20.0049H163.131V9.9708H165.818Z" fill="#231815"/>
<path d="M172.643 9.81506C173.396 9.81506 174.081 9.9351 174.697 10.1752C175.314 10.4152 175.843 10.7559 176.284 11.2035C176.726 11.648 177.066 12.1898 177.307 12.8224C177.547 13.4582 177.667 14.1752 177.667 14.9732C177.667 15.7713 177.547 16.4915 177.307 17.1273C177.066 17.7664 176.726 18.3114 176.284 18.7591C175.843 19.2068 175.314 19.5507 174.697 19.7907C174.081 20.0308 173.396 20.1508 172.643 20.1508C171.89 20.1508 171.192 20.0308 170.572 19.7907C169.952 19.5507 169.42 19.2068 168.979 18.7591C168.537 18.3114 168.193 17.7664 167.95 17.1273C167.707 16.4882 167.586 15.7713 167.586 14.9732C167.586 14.1752 167.71 13.4582 167.95 12.8224C168.193 12.1865 168.534 11.648 168.979 11.2035C169.42 10.7591 169.952 10.4152 170.572 10.1752C171.192 9.9351 171.88 9.81506 172.643 9.81506ZM172.643 18.1362C173.409 18.1362 173.977 17.8735 174.347 17.3414C174.717 16.8126 174.902 16.0276 174.902 14.9829C174.902 13.9383 174.717 13.163 174.347 12.631C173.977 12.1022 173.409 11.8394 172.643 11.8394C171.877 11.8394 171.28 12.1022 170.91 12.631C170.54 13.1598 170.355 13.9448 170.355 14.9829C170.355 16.0211 170.54 16.8159 170.91 17.3414C171.28 17.8702 171.857 18.1362 172.643 18.1362Z" fill="#231815"/>
<path d="M28.6068 4.19954L21.2299 0.00164795L14.7098 3.80376L8.03715 0.00164795L0.666748 4.19954V12.6959L7.2193 16.5175V19.6999L14.5897 23.9984L21.9601 19.6999V16.6602L28.6035 12.7867V4.19954H28.6068ZM20.3244 14.6618L15.5017 11.8492V9.34147L20.3244 12.1541V14.6618ZM2.3057 11.7583V5.15331L8.03715 1.88973L13.7718 5.15331V7.39175L7.2193 11.2133V14.6261L2.3057 11.7616V11.7583ZM13.7718 9.28632V11.7583L8.85825 14.6229V12.1509L13.7718 9.28632ZM14.5897 22.1038L8.855 18.7591V16.5142L14.5572 13.189L20.3244 16.5499V18.7559L14.5897 22.1006V22.1038ZM26.9678 11.8492L21.9633 14.7689V11.2133L15.5017 7.4469V5.2409L21.2396 1.89621L26.9678 5.15655V11.8524V11.8492Z" fill="#00A3AF"/>
</svg>
