<svg width="46" height="46" viewBox="0 0 46 46" fill="none" xmlns="http://www.w3.org/2000/svg">
<mask id="mask0_169_33797" style="mask-type:alpha" maskUnits="userSpaceOnUse" x="0" y="0" width="46" height="46">
<rect width="46" height="46" fill="#D9D9D9"/>
</mask>
<g mask="url(#mask0_169_33797)">
<path d="M36.1279 42.1201C35.8723 42.1201 35.6327 42.0801 35.4091 42.0003C35.1855 41.9204 34.9779 41.7846 34.7862 41.593L25.0112 31.818C24.8195 31.6263 24.6838 31.4187 24.6039 31.1951C24.524 30.9714 24.4841 30.7319 24.4841 30.4763C24.4841 30.2207 24.524 29.9812 24.6039 29.7576C24.6838 29.5339 24.8195 29.3263 25.0112 29.1346L29.0841 25.0617C29.2758 24.8701 29.4834 24.7343 29.707 24.6544C29.9306 24.5746 30.1702 24.5346 30.4258 24.5346C30.6813 24.5346 30.9209 24.5746 31.1445 24.6544C31.3681 24.7343 31.5758 24.8701 31.7674 25.0617L41.5424 34.8367C41.7341 35.0284 41.8699 35.236 41.9497 35.4596C42.0296 35.6832 42.0695 35.9228 42.0695 36.1784C42.0695 36.4339 42.0296 36.6735 41.9497 36.8971C41.8699 37.1207 41.7341 37.3284 41.5424 37.5201L37.4695 41.593C37.2779 41.7846 37.0702 41.9204 36.8466 42.0003C36.623 42.0801 36.3834 42.1201 36.1279 42.1201ZM36.1279 37.568L37.5174 36.1784L30.4737 29.1346L29.0841 30.5242L36.1279 37.568ZM9.82161 42.168C9.56606 42.168 9.31849 42.1201 9.07891 42.0242C8.83932 41.9284 8.6237 41.7846 8.43203 41.593L4.40703 37.568C4.21536 37.3763 4.07161 37.1607 3.97578 36.9211C3.87995 36.6815 3.83203 36.4339 3.83203 36.1784C3.83203 35.9228 3.87995 35.6832 3.97578 35.4596C4.07161 35.236 4.21536 35.0284 4.40703 34.8367L14.5654 24.6784H18.6383L20.2674 23.0492L12.3612 15.143H9.62995L3.83203 9.34505L9.24661 3.93047L15.0445 9.72839V12.4596L22.9508 20.3659L28.5091 14.8076L26.4487 12.7471L29.132 10.0638H23.7174L22.3758 8.72214L29.1799 1.91797L30.5216 3.25964V8.67422L33.2049 5.99089L40.0091 12.7951C40.5522 13.3381 40.9674 13.953 41.2549 14.6398C41.5424 15.3266 41.6862 16.0534 41.6862 16.8201C41.6862 17.5867 41.5424 18.3214 41.2549 19.0242C40.9674 19.727 40.5522 20.3499 40.0091 20.893L35.9362 16.8201L33.2529 19.5034L31.2404 17.4909L21.3216 27.4096V31.4346L11.1633 41.593C10.9716 41.7846 10.764 41.9284 10.5404 42.0242C10.3168 42.1201 10.0772 42.168 9.82161 42.168ZM9.82161 37.568L17.9674 29.4221V28.0326H16.5779L8.43203 36.1784L9.82161 37.568ZM9.82161 37.568L8.43203 36.1784L9.15078 36.8492L9.82161 37.568Z" fill="#1C1B1F"/>
</g>
</svg>
