<svg width="157" height="28" viewBox="0 0 157 28" fill="none" xmlns="http://www.w3.org/2000/svg">
<path d="M33.2546 4.8982L24.6505 0L17.0458 4.43639L9.26321 0L0.666748 4.8982V14.812L8.30931 19.2711V22.9845L16.9058 28L25.5022 22.9845V19.4376L33.2508 14.9179V4.8982H33.2546ZM23.5944 17.1059L17.9695 13.824V10.8979L23.5944 14.1798V17.1059ZM2.57834 13.718V6.01109L9.26321 2.20306L15.9519 6.01109V8.62296L8.30931 13.0821V17.0642L2.57834 13.7218V13.718ZM15.9519 10.8336V13.718L10.2209 17.0604V14.176L15.9519 10.8336ZM16.9058 25.7894L10.2171 21.8867V19.2673L16.8679 15.3873L23.5944 19.3089V21.8829L16.9058 25.7856V25.7894ZM31.343 13.824L25.506 17.2308V13.0821L17.9695 8.68731V6.11329L24.6619 2.21063L31.343 6.01487V13.8278V13.824Z" fill="#164A84"/>
<path d="M50.9884 13.98H56.6437V20.7822C55.8034 21.3955 54.9062 21.8459 53.9561 22.1298C53.006 22.4137 51.9991 22.5538 50.943 22.5538C49.5879 22.5538 48.3614 22.3418 47.2637 21.9216C46.1659 21.5015 45.2272 20.9185 44.4474 20.169C43.6676 19.4195 43.0657 18.53 42.6418 17.5004C42.2178 16.4708 42.0059 15.3465 42.0059 14.1277C42.0059 12.9088 42.2103 11.7618 42.6153 10.7322C43.0203 9.70262 43.5957 8.81685 44.3452 8.07493C45.0947 7.33301 46.0032 6.75385 47.0668 6.33747C48.1305 5.92108 49.3229 5.71289 50.6402 5.71289C51.3215 5.71289 51.9575 5.76967 52.548 5.87566C53.1385 5.98543 53.6836 6.13685 54.1832 6.3299C54.6829 6.52295 55.1409 6.75385 55.5573 7.01504C55.9737 7.28001 56.3522 7.57148 56.6929 7.88945L55.7049 9.41115C55.5535 9.65341 55.3567 9.80103 55.1144 9.85403C54.8722 9.90702 54.6072 9.84646 54.3195 9.67233C54.047 9.50578 53.782 9.35815 53.5208 9.22188C53.2596 9.08939 52.9833 8.97584 52.6843 8.87363C52.389 8.77521 52.0672 8.69951 51.719 8.64651C51.3707 8.59352 50.9695 8.56702 50.5153 8.56702C49.7506 8.56702 49.0579 8.69951 48.4371 8.96448C47.8163 9.22945 47.2864 9.6042 46.8511 10.0887C46.4158 10.5732 46.0789 11.1562 45.8442 11.8375C45.6095 12.5189 45.4921 13.2797 45.4921 14.1201C45.4921 15.0286 45.6208 15.8386 45.8782 16.554C46.1356 17.2695 46.499 17.8751 46.9684 18.3672C47.4378 18.8593 47.998 19.234 48.6567 19.4914C49.3115 19.7489 50.0383 19.8776 50.8408 19.8776C51.3859 19.8776 51.8704 19.8208 52.2981 19.711C52.7259 19.6012 53.1423 19.4498 53.5511 19.2605V16.4897H51.6887C51.4692 16.4897 51.295 16.4329 51.1701 16.3118C51.0452 16.1944 50.9846 16.043 50.9846 15.8613V13.9649L50.9884 13.98Z" fill="#231815"/>
<path d="M58.5515 20.727C58.5515 20.4772 58.5969 20.2425 58.6954 20.0153C58.79 19.792 58.9187 19.599 59.089 19.4362C59.2556 19.2734 59.4486 19.1447 59.672 19.0501C59.8953 18.9555 60.1376 18.9062 60.4063 18.9062C60.6751 18.9062 60.906 18.9517 61.1331 19.0501C61.3602 19.1485 61.5571 19.2734 61.7236 19.4362C61.8902 19.599 62.0189 19.792 62.1135 20.0153C62.2081 20.2387 62.2573 20.4772 62.2573 20.727C62.2573 20.9768 62.2119 21.2229 62.1135 21.4424C62.0151 21.662 61.8864 21.8512 61.7236 22.0178C61.5571 22.1806 61.3602 22.3055 61.1331 22.3963C60.906 22.4872 60.6637 22.5326 60.4063 22.5326C60.1489 22.5326 59.8953 22.4872 59.672 22.3963C59.4486 22.3055 59.2518 22.1806 59.089 22.0178C58.9225 21.855 58.79 21.662 58.6954 21.4424C58.6007 21.2229 58.5515 20.9844 58.5515 20.727Z" fill="#231815"/>
<path d="M71.202 19.6467C71.7547 19.6467 72.2506 19.5559 72.6897 19.3704C73.1288 19.1849 73.4997 18.9199 73.8026 18.583C74.1054 18.2424 74.3363 17.8298 74.4953 17.3452C74.6543 16.8607 74.7338 16.3156 74.7338 15.71V5.89844H78.1405V15.71C78.1405 16.7093 77.9778 17.6254 77.6598 18.4619C77.3381 19.2985 76.8762 20.0215 76.2782 20.6233C75.6801 21.229 74.9533 21.7021 74.0978 22.0428C73.2423 22.3835 72.2771 22.5538 71.202 22.5538C70.127 22.5538 69.158 22.3835 68.2987 22.0428C67.4394 21.7021 66.7089 21.229 66.1146 20.6233C65.5165 20.0177 65.0585 19.2985 64.7329 18.4619C64.4074 17.6254 64.2522 16.7055 64.2522 15.71V5.89844H67.659V15.71C67.659 16.3156 67.7385 16.8607 67.8975 17.3452C68.0564 17.8298 68.2874 18.2424 68.5902 18.583C68.893 18.9237 69.264 19.1887 69.7031 19.3704C70.1422 19.5559 70.6418 19.6467 71.202 19.6467Z" fill="#231815"/>
<path d="M80.1392 20.727C80.1392 20.4772 80.1846 20.2425 80.283 20.0153C80.3776 19.792 80.5063 19.599 80.6767 19.4362C80.8432 19.2734 81.0363 19.1447 81.2596 19.0501C81.483 18.9555 81.7252 18.9062 81.994 18.9062C82.2627 18.9062 82.4936 18.9517 82.7207 19.0501C82.9479 19.1485 83.1447 19.2734 83.3113 19.4362C83.4778 19.599 83.6065 19.792 83.7011 20.0153C83.7958 20.2387 83.845 20.4772 83.845 20.727C83.845 20.9768 83.7996 21.2229 83.7011 21.4424C83.6027 21.662 83.474 21.8512 83.3113 22.0178C83.1447 22.1806 82.9479 22.3055 82.7207 22.3963C82.4936 22.4872 82.2514 22.5326 81.994 22.5326C81.7366 22.5326 81.483 22.4872 81.2596 22.3963C81.0363 22.3055 80.8394 22.1806 80.6767 22.0178C80.5101 21.855 80.3776 21.662 80.283 21.4424C80.1884 21.2229 80.1392 20.9844 80.1392 20.727Z" fill="#231815"/>
<path d="M113.9 5.89453L108.79 22.372H105.713L102.34 11.5952C102.287 11.4438 102.234 11.2773 102.181 11.0956C102.128 10.9139 102.079 10.7208 102.033 10.5164C101.988 10.7208 101.939 10.9139 101.886 11.0956C101.833 11.2773 101.78 11.4438 101.727 11.5952L98.32 22.372H95.2312L90.1323 5.89453H92.994C93.2893 5.89453 93.5353 5.96267 93.736 6.09894C93.9366 6.23521 94.0653 6.41691 94.1296 6.64402L96.6847 15.9332C96.7453 16.1906 96.8058 16.4707 96.8702 16.766C96.9345 17.065 96.9951 17.383 97.0595 17.7161C97.1276 17.3754 97.1995 17.0574 97.2752 16.7622C97.3509 16.4669 97.4342 16.1906 97.5251 15.9332L100.5 6.64402C100.561 6.45476 100.69 6.28063 100.89 6.12544C101.091 5.97024 101.333 5.89453 101.625 5.89453H102.624C102.919 5.89453 103.158 5.96645 103.343 6.10272C103.529 6.24278 103.665 6.42448 103.759 6.64402L106.723 15.9332C106.814 16.1755 106.898 16.4366 106.973 16.7205C107.049 17.0044 107.121 17.3035 107.189 17.6214C107.25 17.3035 107.306 17.0044 107.363 16.7205C107.42 16.4366 107.477 16.1755 107.537 15.9332L110.092 6.64402C110.145 6.44719 110.274 6.27306 110.478 6.12165C110.683 5.97024 110.929 5.89453 111.217 5.89453H113.897H113.9Z" fill="#231815"/>
<path d="M113.605 12.2886C114.294 11.6678 115.055 11.206 115.888 10.8994C116.721 10.5928 117.622 10.4414 118.591 10.4414C119.287 10.4414 119.908 10.555 120.46 10.7821C121.009 11.0092 121.475 11.3272 121.857 11.7284C122.24 12.1334 122.535 12.618 122.739 13.1782C122.944 13.7384 123.046 14.3516 123.046 15.0179V22.3765H121.615C121.32 22.3765 121.093 22.3349 120.941 22.2516C120.786 22.1683 120.657 21.9942 120.559 21.7292L120.309 20.9797C120.014 21.2371 119.726 21.4643 119.45 21.6611C119.173 21.8579 118.89 22.0245 118.591 22.157C118.295 22.2895 117.977 22.3879 117.644 22.456C117.307 22.5241 116.929 22.5582 116.516 22.5582C116.001 22.5582 115.532 22.4901 115.108 22.3538C114.684 22.2175 114.321 22.0131 114.01 21.7482C113.704 21.4794 113.465 21.1463 113.299 20.745C113.132 20.3438 113.049 19.882 113.049 19.3596C113.049 18.9281 113.159 18.4966 113.378 18.065C113.598 17.6335 113.976 17.2398 114.51 16.8916C115.044 16.5396 115.755 16.2481 116.645 16.0172C117.534 15.7863 118.647 15.6538 119.987 15.6235V15.0216C119.987 14.2873 119.832 13.7498 119.522 13.4053C119.211 13.0608 118.765 12.8867 118.182 12.8867C117.75 12.8867 117.391 12.9397 117.103 13.0419C116.815 13.1441 116.562 13.2539 116.346 13.3712C116.13 13.4886 115.926 13.5984 115.74 13.7006C115.551 13.8028 115.331 13.8558 115.082 13.8558C114.862 13.8558 114.68 13.799 114.529 13.6892C114.381 13.5794 114.256 13.4507 114.162 13.2955L113.605 12.2962V12.2886ZM119.987 17.4783C119.223 17.5162 118.587 17.5843 118.08 17.6789C117.572 17.7736 117.171 17.8947 116.872 18.0461C116.573 18.1975 116.361 18.3679 116.236 18.5647C116.111 18.7577 116.051 18.9659 116.051 19.1968C116.051 19.6511 116.176 19.9728 116.429 20.1621C116.683 20.3514 117.035 20.446 117.493 20.446C118.015 20.446 118.466 20.3552 118.848 20.1697C119.23 19.9842 119.609 19.6965 119.987 19.3028V17.4859V17.4783Z" fill="#231815"/>
<path d="M128.652 5.44141V22.3731H125.518V5.44141H128.652Z" fill="#231815"/>
<path d="M134.42 5.44141V22.3731H131.286V5.44141H134.42Z" fill="#231815"/>
<path d="M139.531 17.0007C139.629 18.0985 139.94 18.901 140.47 19.4082C140.996 19.9154 141.681 20.1691 142.529 20.1691C142.96 20.1691 143.331 20.1161 143.649 20.0139C143.963 19.9116 144.24 19.7981 144.478 19.6732C144.717 19.5483 144.933 19.4347 145.126 19.3325C145.319 19.2303 145.512 19.1773 145.701 19.1773C145.943 19.1773 146.132 19.2681 146.269 19.4498L147.177 20.5854C146.844 20.9715 146.477 21.2933 146.076 21.5469C145.674 21.8005 145.258 22.0011 144.827 22.1488C144.395 22.2964 143.96 22.3986 143.521 22.4554C143.081 22.5122 142.658 22.5424 142.249 22.5424C141.431 22.5424 140.666 22.4062 139.962 22.1374C139.255 21.8687 138.638 21.4712 138.111 20.945C137.585 20.4189 137.169 19.7678 136.87 18.988C136.567 18.2083 136.416 17.3036 136.416 16.274C136.416 15.479 136.548 14.7295 136.809 14.0255C137.07 13.3214 137.445 12.7082 137.937 12.1858C138.429 11.6634 139.027 11.2508 139.731 10.9442C140.436 10.6376 141.23 10.4824 142.116 10.4824C142.866 10.4824 143.555 10.5998 144.191 10.842C144.823 11.0805 145.368 11.425 145.826 11.8792C146.284 12.3334 146.64 12.8937 146.893 13.5561C147.147 14.2185 147.276 14.9756 147.276 15.8197C147.276 16.0544 147.264 16.2475 147.242 16.3989C147.219 16.5503 147.181 16.6714 147.128 16.7623C147.075 16.8531 147.003 16.9137 146.912 16.9477C146.821 16.9818 146.704 17.0007 146.56 17.0007H139.542H139.531ZM144.459 15.1384C144.459 14.8128 144.414 14.5024 144.327 14.2072C144.24 13.9119 144.1 13.6507 143.914 13.4236C143.725 13.1965 143.487 13.0186 143.199 12.8861C142.911 12.7536 142.567 12.6893 142.165 12.6893C141.416 12.6893 140.829 12.9012 140.405 13.3252C139.981 13.7492 139.705 14.3548 139.576 15.1421H144.459V15.1384Z" fill="#231815"/>
<path d="M153.124 22.5533C152.594 22.5533 152.125 22.4738 151.716 22.3224C151.307 22.1672 150.962 21.9439 150.682 21.6562C150.402 21.3685 150.19 21.0203 150.046 20.6115C149.903 20.2027 149.831 19.7408 149.831 19.226V12.9121H148.729C148.563 12.9121 148.419 12.8591 148.305 12.7531C148.188 12.6472 148.127 12.4882 148.127 12.2762V11.0498L150.001 10.7091L150.637 7.67703C150.72 7.33636 150.951 7.16602 151.33 7.16602H152.965V10.7318H155.986V12.9121H152.965V19.0216C152.965 19.3472 153.041 19.6046 153.196 19.7938C153.351 19.9831 153.57 20.0777 153.858 20.0777C154.01 20.0777 154.138 20.0626 154.244 20.0285C154.35 19.9945 154.441 19.9566 154.517 19.915C154.593 19.8733 154.661 19.8355 154.729 19.8014C154.793 19.7673 154.857 19.7484 154.926 19.7484C155.016 19.7484 155.092 19.7711 155.153 19.8128C155.213 19.8544 155.274 19.9263 155.334 20.0247L156.277 21.5237C155.845 21.8644 155.357 22.1218 154.812 22.2959C154.267 22.4701 153.703 22.5571 153.12 22.5571L153.124 22.5533Z" fill="#231815"/>
</svg>
