<svg width="50" height="80" viewBox="0 0 50 80" fill="none" xmlns="http://www.w3.org/2000/svg">
<path d="M48 27.1524L35.8548 20.2383L25.1202 26.5006L14.1345 20.2383L2 27.1524V41.1464L12.788 47.4407V52.6825L24.9225 59.7623L37.057 52.6825V47.6758L47.9947 41.296V27.1524H48ZM34.364 44.3844L26.424 39.7518V35.6215L34.364 40.2541V44.3844ZM4.69834 39.6022V28.7234L14.1345 23.3481L23.576 28.7234V32.4102L12.788 38.7045V44.3256L4.69834 39.6075V39.6022ZM23.576 35.5307V39.6022L15.4864 44.3203V40.2487L23.576 35.5307ZM24.9225 56.6418L15.481 51.1329V47.4354L24.8691 41.9586L34.364 47.4942V51.1276L24.9225 56.6365V56.6418ZM45.3017 39.7518L37.0624 44.5607V38.7045L26.424 32.501V28.8676L35.8708 23.3587L45.3017 28.7287V39.7572V39.7518Z" fill="#164A84"/>
</svg>
