<svg width="54" height="54" viewBox="0 0 54 54" fill="none" xmlns="http://www.w3.org/2000/svg">
<g clip-path="url(#clip0_169_33577)">
<circle cx="27.0684" cy="27" r="21.558" fill="white" stroke="black" stroke-width="2.88401"/>
<path d="M39.4359 36.4505C38.809 36.8625 38.0118 37.2477 37.0445 37.6059C36.0951 37.9463 35.0562 38.1165 33.9276 38.1165C31.9393 38.1165 30.1838 37.6776 28.6612 36.7998C27.1565 35.9221 25.9921 34.7398 25.1681 33.253C24.362 31.7663 23.959 30.1272 23.959 28.3359C23.959 26.4192 24.371 24.6995 25.195 23.1769C26.019 21.6364 27.1565 20.4362 28.6074 19.5764C30.0763 18.6986 31.7333 18.2598 33.5783 18.2598C34.671 18.2598 35.6921 18.4031 36.6415 18.6897C37.5909 18.9763 38.4417 19.3525 39.1941 19.8182L38.1462 22.2633C36.6594 21.2602 35.1636 20.7586 33.6589 20.7586C32.405 20.7586 31.2407 21.09 30.1659 21.7528C29.109 22.4156 28.2581 23.3202 27.6133 24.4667C26.9863 25.5952 26.6728 26.8402 26.6728 28.2015C26.6728 29.5988 26.9594 30.8616 27.5327 31.9902C28.1238 33.1187 28.9567 34.0054 30.0315 34.6503C31.1242 35.2772 32.3782 35.5907 33.7933 35.5907C35.5309 35.5907 37.0445 35.0981 38.3343 34.1129L39.4359 36.4505Z" fill="black"/>
<path d="M14.5957 28.2015C14.5957 26.4281 15.0435 24.7801 15.9392 23.2575C16.8348 21.7349 18.035 20.5258 19.5397 19.6301C21.0623 18.7166 22.7193 18.2598 24.5106 18.2598C26.284 18.2598 27.932 18.7166 29.4546 19.6301C30.9773 20.5258 32.1864 21.7349 33.082 23.2575C33.9956 24.7801 34.4524 26.4281 34.4524 28.2015C34.4524 29.9929 34.0046 31.6498 33.1089 33.1724C32.2133 34.6951 30.9952 35.9042 29.4546 36.7998C27.932 37.6776 26.284 38.1165 24.5106 38.1165C22.7193 38.1165 21.0623 37.6776 19.5397 36.7998C18.0171 35.9221 16.808 34.7309 15.9123 33.2262C15.0346 31.7036 14.5957 30.0287 14.5957 28.2015ZM17.2827 28.2284C17.2827 29.554 17.6051 30.781 18.25 31.9096C18.8949 33.0381 19.7726 33.9337 20.8832 34.5965C22.0117 35.2593 23.2388 35.5907 24.5644 35.5907C25.8899 35.5907 27.0991 35.2683 28.1918 34.6234C29.3024 33.9606 30.1712 33.065 30.7981 31.9364C31.443 30.79 31.7654 29.545 31.7654 28.2015C31.7654 26.8581 31.443 25.6131 30.7981 24.4667C30.1533 23.3202 29.2755 22.4156 28.1649 21.7528C27.0543 21.09 25.8362 20.7586 24.5106 20.7586C23.185 20.7586 21.967 21.099 20.8563 21.7797C19.7457 22.4425 18.868 23.3471 18.2231 24.4935C17.5962 25.64 17.2827 26.8849 17.2827 28.2284Z" fill="#CB0808"/>
<path d="M22.739 31.5143C22.739 33.0548 22.4435 34.3804 21.8523 35.491C21.2612 36.6195 20.4372 37.4793 19.3803 38.0705C18.3413 38.6795 17.1501 39.002 15.8066 39.0378V36.512C17.1322 36.4404 18.1801 35.9746 18.9504 35.1148C19.7386 34.2729 20.1327 33.0458 20.1327 31.4337V15.6074H22.739V31.5143Z" fill="black"/>
<mask id="mask0_169_33577" style="mask-type:alpha" maskUnits="userSpaceOnUse" x="26" y="33" width="7" height="6">
<path d="M26.1758 33.7812H32.0871V38.6178H26.1758V33.7812Z" fill="white"/>
</mask>
<g mask="url(#mask0_169_33577)">
<path d="M39.4359 36.4505C38.809 36.8625 38.0118 37.2477 37.0445 37.6059C36.0951 37.9463 35.0562 38.1165 33.9276 38.1165C31.9393 38.1165 30.1838 37.6776 28.6612 36.7998C27.1565 35.9221 25.9921 34.7398 25.1681 33.253C24.362 31.7663 23.959 30.1272 23.959 28.3359C23.959 26.4192 24.371 24.6995 25.195 23.1769C26.019 21.6364 27.1565 20.4362 28.6074 19.5764C30.0763 18.6986 31.7333 18.2598 33.5783 18.2598C34.671 18.2598 35.6921 18.4031 36.6415 18.6897C37.5909 18.9763 38.4417 19.3525 39.1941 19.8182L38.1462 22.2633C36.6594 21.2602 35.1636 20.7586 33.6589 20.7586C32.405 20.7586 31.2407 21.09 30.1659 21.7528C29.109 22.4156 28.2581 23.3202 27.6133 24.4667C26.9863 25.5952 26.6728 26.8402 26.6728 28.2015C26.6728 29.5988 26.9594 30.8616 27.5327 31.9902C28.1238 33.1187 28.9567 34.0054 30.0315 34.6503C31.1242 35.2772 32.3782 35.5907 33.7933 35.5907C35.5309 35.5907 37.0445 35.0981 38.3343 34.1129L39.4359 36.4505Z" fill="black"/>
</g>
<mask id="mask1_169_33577" style="mask-type:alpha" maskUnits="userSpaceOnUse" x="17" y="33" width="6" height="6">
<path d="M17.2188 33.7812H22.4136V38.6178H17.2188V33.7812Z" fill="white"/>
</mask>
<g mask="url(#mask1_169_33577)">
<path d="M14.5957 28.2015C14.5957 26.4281 15.0435 24.7801 15.9392 23.2575C16.8348 21.7349 18.035 20.5258 19.5397 19.6301C21.0623 18.7166 22.7193 18.2598 24.5106 18.2598C26.284 18.2598 27.932 18.7166 29.4546 19.6301C30.9773 20.5258 32.1864 21.7349 33.082 23.2575C33.9956 24.7801 34.4524 26.4281 34.4524 28.2015C34.4524 29.9929 34.0046 31.6498 33.1089 33.1724C32.2133 34.6951 30.9952 35.9042 29.4546 36.7998C27.932 37.6776 26.284 38.1165 24.5106 38.1165C22.7193 38.1165 21.0623 37.6776 19.5397 36.7998C18.0171 35.9221 16.808 34.7309 15.9123 33.2262C15.0346 31.7036 14.5957 30.0287 14.5957 28.2015ZM17.2827 28.2284C17.2827 29.554 17.6051 30.781 18.25 31.9096C18.8949 33.0381 19.7726 33.9337 20.8832 34.5965C22.0117 35.2593 23.2388 35.5907 24.5644 35.5907C25.8899 35.5907 27.0991 35.2683 28.1918 34.6234C29.3024 33.9606 30.1712 33.065 30.7981 31.9364C31.443 30.79 31.7654 29.545 31.7654 28.2015C31.7654 26.8581 31.443 25.6131 30.7981 24.4667C30.1533 23.3202 29.2755 22.4156 28.1649 21.7528C27.0543 21.09 25.8362 20.7586 24.5106 20.7586C23.185 20.7586 21.967 21.099 20.8563 21.7797C19.7457 22.4425 18.868 23.3471 18.2231 24.4935C17.5962 25.64 17.2827 26.8849 17.2827 28.2284Z" fill="#CB0808"/>
</g>
</g>
<defs>
<clipPath id="clip0_169_33577">
<rect width="46" height="46" fill="white" transform="translate(4 4)"/>
</clipPath>
</defs>
</svg>
