<svg width="46" height="46" viewBox="0 0 46 46" fill="none" xmlns="http://www.w3.org/2000/svg">
<g clip-path="url(#clip0_169_33982)">
<g opacity="0.903">
<path d="M45.9766 0.0214844H0.0214844V45.9766H45.9766V0.0214844Z" fill="#02043F"/>
<path d="M18.0947 19.36L18.604 18.7891L18.6624 19.5517L19.4115 19.7072L18.78 20.1391L19.0199 20.8652L18.3304 20.5345L17.8211 21.1055L17.7627 20.3428L17.0137 20.1877L17.6451 19.7557L17.4054 19.0293L18.0947 19.36Z" fill="white"/>
<path d="M12.9192 12.8404L14.5181 11.0469L14.702 13.4426L17.0541 13.9305L15.0714 15.2875L15.825 17.5689L13.6588 16.5303L12.0599 18.3234L11.876 15.928L9.52344 15.4397L11.5062 14.0831L10.7526 11.8017L12.9192 12.8404Z" fill="white"/>
<path d="M27.6531 8.94336C29.2956 11.4169 30.1703 14.3207 30.1672 17.2898C30.1672 25.6892 23.3113 32.4985 14.8543 32.4985C13.3483 32.4991 11.8503 32.279 10.4082 31.8451C11.7987 33.4815 13.5291 34.7953 15.4789 35.6952C17.4287 36.5951 19.5511 37.0594 21.6985 37.0558C29.8606 37.0558 36.4778 30.4843 36.4778 22.3774C36.4776 16.3755 32.8488 11.2182 27.6531 8.94336Z" fill="white"/>
</g>
</g>
<defs>
<clipPath id="clip0_169_33982">
<rect width="46" height="46" rx="23" fill="white"/>
</clipPath>
</defs>
</svg>
