<svg width="190" height="24" viewBox="0 0 190 24" fill="none" xmlns="http://www.w3.org/2000/svg">
<path d="M43.7608 12.8132H48.617V18.6437C47.8954 19.1693 47.125 19.5554 46.3091 19.7988C45.4933 20.0421 44.6286 20.1622 43.7218 20.1622C42.5581 20.1622 41.5049 19.9805 40.5623 19.6203C39.6196 19.2602 38.8135 18.7605 38.1439 18.1181C37.4743 17.4757 36.9575 16.7132 36.5934 15.8307C36.2294 14.9481 36.0474 13.9845 36.0474 12.9398C36.0474 11.895 36.2229 10.9119 36.5707 10.0294C36.9185 9.14688 37.4126 8.38765 38.0562 7.75172C38.6998 7.11578 39.4799 6.61937 40.3933 6.26246C41.3066 5.90556 42.3306 5.72711 43.4617 5.72711C44.0468 5.72711 44.5929 5.77578 45.1 5.86663C45.607 5.96072 46.0751 6.0905 46.5042 6.25598C46.9332 6.42145 47.3266 6.61937 47.6841 6.84324C48.0417 7.07036 48.3667 7.32019 48.6593 7.59273L47.8109 8.89705C47.6809 9.1047 47.5118 9.23124 47.3038 9.27666C47.0958 9.32208 46.8682 9.27017 46.6212 9.12092C46.3872 8.97816 46.1596 8.85162 45.9353 8.73482C45.7111 8.62126 45.4738 8.52392 45.217 8.43632C44.9634 8.35196 44.6872 8.28707 44.3881 8.24164C44.0891 8.19622 43.7445 8.17351 43.3545 8.17351C42.6979 8.17351 42.103 8.28707 41.5699 8.51419C41.0369 8.74131 40.5818 9.06252 40.208 9.47782C39.8342 9.89312 39.5449 10.3928 39.3434 10.9768C39.1418 11.5608 39.0411 12.213 39.0411 12.9333C39.0411 13.712 39.1516 14.4063 39.3726 15.0195C39.5936 15.6327 39.9057 16.1519 40.3088 16.5737C40.7118 16.9955 41.1929 17.3167 41.7585 17.5373C42.3208 17.7579 42.9449 17.8682 43.634 17.8682C44.1021 17.8682 44.5181 17.8196 44.8854 17.7255C45.2527 17.6314 45.6103 17.5016 45.9613 17.3394V14.9644H44.3621C44.1736 14.9644 44.0241 14.9157 43.9168 14.8119C43.8095 14.7113 43.7575 14.5815 43.7575 14.4258V12.8002L43.7608 12.8132Z" fill="#231815"/>
<path d="M50.2554 18.5949C50.2554 18.3808 50.2944 18.1796 50.3789 17.985C50.4602 17.7935 50.5707 17.6281 50.7169 17.4885C50.86 17.349 51.0257 17.2387 51.2175 17.1576C51.4093 17.0765 51.6173 17.0343 51.8481 17.0343C52.0789 17.0343 52.2772 17.0732 52.4722 17.1576C52.6672 17.242 52.8363 17.349 52.9793 17.4885C53.1223 17.6281 53.2328 17.7935 53.3141 17.985C53.3953 18.1764 53.4376 18.3808 53.4376 18.5949C53.4376 18.8091 53.3986 19.02 53.3141 19.2082C53.2296 19.3963 53.1191 19.5586 52.9793 19.7013C52.8363 19.8408 52.6672 19.9479 52.4722 20.0258C52.2772 20.1037 52.0691 20.1426 51.8481 20.1426C51.6271 20.1426 51.4093 20.1037 51.2175 20.0258C51.0257 19.9479 50.8567 19.8408 50.7169 19.7013C50.5739 19.5618 50.4602 19.3963 50.3789 19.2082C50.2976 19.02 50.2554 18.8156 50.2554 18.5949Z" fill="#231815"/>
<path d="M61.1178 17.6696C61.5924 17.6696 62.0182 17.5917 62.3952 17.4327C62.7723 17.2737 63.0908 17.0466 63.3509 16.7578C63.6109 16.4658 63.8092 16.1122 63.9457 15.6969C64.0822 15.2816 64.1505 14.8143 64.1505 14.2952V5.88531H67.0759V14.2952C67.0759 15.1518 66.9362 15.937 66.6631 16.654C66.3868 17.3711 65.9903 17.9908 65.4767 18.5066C64.9631 19.0258 64.339 19.4313 63.6044 19.7234C62.8698 20.0154 62.0409 20.1614 61.1178 20.1614C60.1947 20.1614 59.3625 20.0154 58.6247 19.7234C57.8868 19.4313 57.2595 19.0258 56.7491 18.5066C56.2356 17.9875 55.8423 17.3711 55.5627 16.654C55.2832 15.937 55.1499 15.1485 55.1499 14.2952V5.88531H58.0753V14.2952C58.0753 14.8143 58.1436 15.2816 58.2801 15.6969C58.4166 16.1122 58.6149 16.4658 58.875 16.7578C59.135 17.0498 59.4535 17.277 59.8306 17.4327C60.2077 17.5917 60.6367 17.6696 61.1178 17.6696Z" fill="#231815"/>
<path d="M68.7925 18.5949C68.7925 18.3808 68.8315 18.1796 68.916 17.985C68.9973 17.7935 69.1078 17.6281 69.254 17.4885C69.3971 17.349 69.5628 17.2387 69.7546 17.1576C69.9464 17.0765 70.1544 17.0343 70.3852 17.0343C70.616 17.0343 70.8143 17.0732 71.0093 17.1576C71.2043 17.242 71.3734 17.349 71.5164 17.4885C71.6594 17.6281 71.7699 17.7935 71.8512 17.985C71.9325 18.1764 71.9747 18.3808 71.9747 18.5949C71.9747 18.8091 71.9357 19.02 71.8512 19.2082C71.7667 19.3963 71.6562 19.5586 71.5164 19.7013C71.3734 19.8408 71.2043 19.9479 71.0093 20.0258C70.8143 20.1037 70.6062 20.1426 70.3852 20.1426C70.1642 20.1426 69.9464 20.1037 69.7546 20.0258C69.5628 19.9479 69.3938 19.8408 69.254 19.7013C69.111 19.5618 68.9973 19.3963 68.916 19.2082C68.8347 19.02 68.7925 18.8156 68.7925 18.5949Z" fill="#231815"/>
<path d="M88.2376 8.23793H84.103V20.0059H81.1678V8.23793H77.0332V5.88239H88.2376V8.23793Z" fill="#231815"/>
<path d="M91.8357 9.81458C92.5899 9.81458 93.2757 9.93462 93.8933 10.1747C94.5109 10.4148 95.0407 10.7555 95.4828 11.2032C95.9249 11.6478 96.2661 12.1896 96.5067 12.8223C96.7472 13.4582 96.8675 14.1753 96.8675 14.9734C96.8675 15.7716 96.7472 16.4919 96.5067 17.1278C96.2661 17.767 95.9249 18.3121 95.4828 18.7598C95.0407 19.2076 94.5109 19.5515 93.8933 19.7916C93.2757 20.0317 92.5899 20.1517 91.8357 20.1517C91.0816 20.1517 90.3828 20.0317 89.7619 19.7916C89.1411 19.5515 88.608 19.2076 88.1659 18.7598C87.7239 18.3121 87.3793 17.767 87.1355 17.1278C86.8918 16.4886 86.7715 15.7716 86.7715 14.9734C86.7715 14.1753 86.895 13.4582 87.1355 12.8223C87.3793 12.1863 87.7206 11.6478 88.1659 11.2032C88.608 10.7587 89.1411 10.4148 89.7619 10.1747C90.3828 9.93462 91.0719 9.81458 91.8357 9.81458ZM91.8357 18.1369C92.6029 18.1369 93.1717 17.8741 93.5422 17.342C93.9128 16.8131 94.0981 16.0279 94.0981 14.9832C94.0981 13.9384 93.9128 13.163 93.5422 12.6309C93.1717 12.102 92.6029 11.8392 91.8357 11.8392C91.0686 11.8392 90.4705 12.102 90.1 12.6309C89.7294 13.1597 89.5441 13.9449 89.5441 14.9832C89.5441 16.0214 89.7294 16.8163 90.1 17.342C90.4705 17.8708 91.0491 18.1369 91.8357 18.1369Z" fill="#231815"/>
<path d="M101.255 5.49268V13.7274H101.703C101.872 13.7274 102.006 13.7047 102.103 13.6527C102.201 13.6041 102.298 13.5165 102.396 13.3867L104.619 10.4276C104.73 10.2784 104.856 10.1648 104.996 10.087C105.136 10.0091 105.315 9.97017 105.526 9.97017H107.983L105.097 13.63C104.869 13.935 104.606 14.1751 104.307 14.3503C104.457 14.4541 104.587 14.5742 104.697 14.7105C104.808 14.8467 104.915 14.9992 105.019 15.1679L108.13 20.0056H105.711C105.503 20.0056 105.324 19.9731 105.175 19.905C105.025 19.8369 104.902 19.7168 104.804 19.5416L102.542 15.8526C102.451 15.6968 102.357 15.5962 102.259 15.5508C102.162 15.5054 102.015 15.4827 101.82 15.4827H101.255V20.0088H98.5635V5.49268H101.255Z" fill="#231815"/>
<path d="M110.861 15.4017C110.946 16.3426 111.212 17.0305 111.667 17.4652C112.119 17.9 112.707 18.1174 113.436 18.1174C113.806 18.1174 114.125 18.072 114.398 17.9844C114.668 17.8968 114.905 17.7994 115.11 17.6924C115.314 17.5853 115.5 17.488 115.665 17.4004C115.831 17.3127 115.997 17.2673 116.159 17.2673C116.368 17.2673 116.53 17.3452 116.647 17.5009L117.427 18.4743C117.141 18.8052 116.826 19.081 116.481 19.2984C116.137 19.5158 115.779 19.6878 115.409 19.8143C115.038 19.9408 114.664 20.0284 114.287 20.0771C113.91 20.1258 113.546 20.1517 113.195 20.1517C112.493 20.1517 111.836 20.0349 111.232 19.8046C110.624 19.5742 110.094 19.2335 109.642 18.7825C109.19 18.3315 108.833 17.7735 108.576 17.1051C108.316 16.4367 108.186 15.6613 108.186 14.7787C108.186 14.0974 108.3 13.455 108.524 12.8515C108.748 12.248 109.07 11.7224 109.493 11.2746C109.915 10.8269 110.429 10.4732 111.033 10.2104C111.638 9.9476 112.321 9.81458 113.081 9.81458C113.725 9.81458 114.316 9.91516 114.863 10.1228C115.405 10.3272 115.873 10.6225 116.267 11.0118C116.66 11.4012 116.966 11.8814 117.183 12.4492C117.401 13.017 117.512 13.6659 117.512 14.3894C117.512 14.5906 117.502 14.756 117.482 14.8858C117.463 15.0156 117.43 15.1194 117.385 15.1973C117.339 15.2752 117.278 15.3271 117.2 15.3563C117.122 15.3855 117.021 15.4017 116.897 15.4017H110.871H110.861ZM115.093 13.8054C115.093 13.5263 115.054 13.2603 114.98 13.0072C114.905 12.7541 114.785 12.5303 114.625 12.3356C114.463 12.1409 114.258 11.9884 114.011 11.8749C113.764 11.7613 113.468 11.7062 113.124 11.7062C112.48 11.7062 111.976 11.8878 111.612 12.2512C111.248 12.6146 111.011 13.1338 110.9 13.8086H115.093V13.8054Z" fill="#231815"/>
<path d="M121.665 11.1384C121.867 10.9437 122.075 10.7652 122.296 10.603C122.514 10.4408 122.745 10.3013 122.988 10.1845C123.232 10.0677 123.496 9.9768 123.778 9.91191C124.061 9.84702 124.367 9.81458 124.698 9.81458C125.244 9.81458 125.729 9.90867 126.151 10.0969C126.574 10.285 126.931 10.5478 127.221 10.8853C127.51 11.2227 127.728 11.625 127.874 12.0923C128.02 12.5595 128.095 13.0721 128.095 13.6302V20.0057H125.413V13.6302C125.413 13.0721 125.283 12.6373 125.023 12.3324C124.763 12.0241 124.38 11.8684 123.873 11.8684C123.496 11.8684 123.141 11.9495 122.81 12.1117C122.478 12.274 122.163 12.5011 121.864 12.7931V20.0057H119.172V9.97031H120.83C121.168 9.97031 121.392 10.1261 121.503 10.4375L121.669 11.1384H121.665Z" fill="#231815"/>
<path d="M142.894 8.5885C142.803 8.73775 142.709 8.84482 142.618 8.91295C142.524 8.98109 142.4 9.01354 142.254 9.01354C142.108 9.01354 141.955 8.96487 141.789 8.86428C141.623 8.7637 141.432 8.65339 141.211 8.53983C140.99 8.42303 140.736 8.31595 140.45 8.21213C140.164 8.11155 139.829 8.06288 139.446 8.06288C138.769 8.06288 138.262 8.21213 137.924 8.51712C137.586 8.82211 137.417 9.2147 137.417 9.70138C137.417 10.0129 137.512 10.2692 137.694 10.4768C137.879 10.6812 138.123 10.8564 138.425 11.0057C138.727 11.1549 139.068 11.288 139.455 11.4048C139.842 11.5216 140.232 11.6514 140.635 11.7909C141.038 11.9304 141.432 12.0959 141.815 12.284C142.199 12.4722 142.54 12.7091 142.846 12.9946C143.148 13.2801 143.392 13.6305 143.577 14.0426C143.762 14.4547 143.853 14.9543 143.853 15.5448C143.853 16.1873 143.739 16.7907 143.515 17.3488C143.291 17.9101 142.966 18.4 142.547 18.8186C142.124 19.2371 141.601 19.5681 140.983 19.8049C140.362 20.045 139.657 20.1651 138.87 20.1651C138.422 20.1651 137.973 20.1197 137.531 20.0288C137.086 19.938 136.657 19.8114 136.244 19.6492C135.831 19.487 135.441 19.2923 135.08 19.0652C134.716 18.8381 134.398 18.585 134.125 18.306L134.983 16.9238C135.054 16.8199 135.148 16.7323 135.265 16.6642C135.382 16.5961 135.506 16.5636 135.636 16.5636C135.812 16.5636 135.997 16.6285 136.192 16.7583C136.387 16.8881 136.611 17.0308 136.865 17.1866C137.118 17.3423 137.414 17.4851 137.749 17.6149C138.084 17.7446 138.483 17.8095 138.955 17.8095C139.637 17.8095 140.164 17.6538 140.541 17.3423C140.915 17.0308 141.1 16.5669 141.1 15.9504C141.1 15.5935 141.009 15.3047 140.824 15.0841C140.638 14.8635 140.398 14.6785 140.099 14.5293C139.8 14.38 139.459 14.2535 139.075 14.1432C138.691 14.0361 138.298 13.9193 137.895 13.7895C137.492 13.6597 137.099 13.504 136.715 13.3223C136.332 13.1406 135.99 12.9005 135.691 12.602C135.392 12.3035 135.148 11.9336 134.966 11.4924C134.781 11.0511 134.69 10.5028 134.69 9.84739C134.69 9.32177 134.794 8.81237 135.002 8.3192C135.21 7.82603 135.516 7.38801 135.919 7.00515C136.322 6.6223 136.816 6.31406 137.408 6.08045C137.996 5.84685 138.669 5.73004 139.433 5.73004C140.284 5.73004 141.071 5.85982 141.796 6.12263C142.521 6.38544 143.132 6.75208 143.632 7.21929L142.911 8.59174L142.894 8.5885Z" fill="#231815"/>
<path d="M148.647 20.1615C148.192 20.1615 147.789 20.0933 147.438 19.9636C147.087 19.8305 146.791 19.6391 146.551 19.3925C146.31 19.1459 146.128 18.8474 146.004 18.497C145.881 18.1466 145.819 17.7508 145.819 17.3095V11.8976H144.873C144.73 11.8976 144.607 11.8522 144.509 11.7613C144.408 11.6705 144.356 11.5342 144.356 11.3525V10.3013L145.965 10.0093L146.512 7.41037C146.583 7.11836 146.781 6.97235 147.106 6.97235H148.511V10.0287H151.104V11.8976H148.511V17.1343C148.511 17.4133 148.576 17.634 148.709 17.7962C148.842 17.9584 149.031 18.0395 149.278 18.0395C149.408 18.0395 149.518 18.0266 149.609 17.9974C149.7 17.9682 149.778 17.9357 149.843 17.9C149.908 17.8643 149.967 17.8319 150.025 17.8027C150.081 17.7735 150.136 17.7573 150.194 17.7573C150.272 17.7573 150.337 17.7767 150.389 17.8124C150.441 17.8481 150.493 17.9098 150.545 17.9941L151.355 19.279C150.984 19.571 150.565 19.7916 150.097 19.9409C149.629 20.0901 149.144 20.1647 148.644 20.1647L148.647 20.1615Z" fill="#231815"/>
<path d="M161.363 9.97016V20.0056H159.705C159.361 20.0056 159.14 19.8498 159.042 19.5384L158.867 18.8375C158.665 19.0322 158.457 19.2107 158.243 19.3729C158.028 19.5351 157.797 19.6746 157.553 19.7914C157.31 19.9082 157.046 19.9991 156.764 20.064C156.481 20.1289 156.175 20.1613 155.844 20.1613C155.298 20.1613 154.81 20.0672 154.387 19.879C153.962 19.6909 153.604 19.4281 153.318 19.0906C153.032 18.7532 152.814 18.3509 152.665 17.8836C152.515 17.4164 152.44 16.9038 152.44 16.3457V9.97016H155.132V16.3457C155.132 16.9038 155.262 17.3386 155.519 17.6435C155.775 17.9518 156.156 18.1043 156.663 18.1043C157.04 18.1043 157.394 18.0232 157.726 17.8544C158.057 17.689 158.373 17.4651 158.672 17.1796V9.96692H161.363V9.97016Z" fill="#231815"/>
<path d="M172.489 5.49268V20.0056H170.832C170.487 20.0056 170.266 19.8498 170.169 19.5384L169.944 18.6623C169.743 18.883 169.531 19.0841 169.307 19.2658C169.083 19.4475 168.839 19.6033 168.579 19.7363C168.319 19.8693 168.04 19.9731 167.74 20.0445C167.441 20.1159 167.116 20.1516 166.765 20.1516C166.226 20.1516 165.732 20.038 165.283 19.8109C164.835 19.5838 164.444 19.2496 164.119 18.8148C163.791 18.3768 163.534 17.8415 163.356 17.2023C163.174 16.5664 163.083 15.8396 163.083 15.0219C163.083 14.2757 163.183 13.5814 163.391 12.9389C163.596 12.2965 163.885 11.7417 164.266 11.2745C164.643 10.8073 165.098 10.4406 165.631 10.1746C166.164 9.90852 166.756 9.77549 167.406 9.77549C167.952 9.77549 168.41 9.85661 168.787 10.0188C169.161 10.1811 169.499 10.4017 169.805 10.6807V5.49268H172.496H172.489ZM169.798 12.5788C169.544 12.2868 169.271 12.0824 168.976 11.9656C168.68 11.8488 168.365 11.7904 168.033 11.7904C167.701 11.7904 167.412 11.852 167.146 11.9753C166.879 12.0986 166.648 12.2933 166.457 12.5561C166.265 12.8189 166.115 13.1531 166.014 13.5619C165.91 13.9707 165.858 14.4574 165.858 15.0219C165.858 15.5865 165.901 16.0537 165.985 16.4431C166.07 16.8324 166.19 17.1471 166.349 17.3872C166.509 17.6273 166.7 17.7993 166.931 17.9064C167.159 18.0134 167.412 18.0653 167.692 18.0653C168.166 18.0653 168.566 17.9712 168.888 17.7831C169.21 17.5949 169.512 17.3288 169.798 16.9849V12.5755V12.5788Z" fill="#231815"/>
<path d="M177.814 7.11883C177.814 7.34595 177.768 7.55684 177.677 7.75152C177.586 7.94619 177.463 8.11815 177.313 8.2674C177.16 8.41665 176.982 8.53346 176.777 8.61782C176.572 8.70217 176.354 8.74435 176.12 8.74435C175.899 8.74435 175.688 8.70217 175.49 8.61782C175.291 8.53346 175.116 8.41665 174.97 8.2674C174.82 8.11815 174.703 7.94619 174.615 7.75152C174.527 7.55684 174.482 7.34595 174.482 7.11883C174.482 6.89171 174.527 6.68081 174.615 6.4829C174.703 6.28498 174.82 6.11302 174.97 5.96377C175.119 5.81452 175.291 5.69771 175.49 5.61335C175.688 5.529 175.896 5.48682 176.12 5.48682C176.354 5.48682 176.575 5.529 176.777 5.61335C176.982 5.69771 177.16 5.81452 177.313 5.96377C177.466 6.11302 177.586 6.28822 177.677 6.4829C177.768 6.68081 177.814 6.89496 177.814 7.11883ZM177.492 9.9708V20.0062H174.8V9.9708H177.492Z" fill="#231815"/>
<path d="M184.328 9.81458C185.082 9.81458 185.768 9.93462 186.386 10.1747C187.003 10.4148 187.533 10.7555 187.975 11.2032C188.417 11.6478 188.759 12.1896 188.999 12.8223C189.24 13.4582 189.36 14.1753 189.36 14.9734C189.36 15.7716 189.24 16.4919 188.999 17.1278C188.759 17.767 188.417 18.3121 187.975 18.7598C187.533 19.2076 187.003 19.5515 186.386 19.7916C185.768 20.0317 185.082 20.1517 184.328 20.1517C183.574 20.1517 182.875 20.0317 182.254 19.7916C181.634 19.5515 181.1 19.2076 180.658 18.7598C180.216 18.3121 179.872 17.767 179.628 17.1278C179.384 16.4886 179.264 15.7716 179.264 14.9734C179.264 14.1753 179.387 13.4582 179.628 12.8223C179.872 12.1863 180.213 11.6478 180.658 11.2032C181.1 10.7587 181.634 10.4148 182.254 10.1747C182.875 9.93462 183.564 9.81458 184.328 9.81458ZM184.328 18.1369C185.095 18.1369 185.664 17.8741 186.035 17.342C186.405 16.8131 186.591 16.0279 186.591 14.9832C186.591 13.9384 186.405 13.163 186.035 12.6309C185.664 12.102 185.095 11.8392 184.328 11.8392C183.561 11.8392 182.963 12.102 182.592 12.6309C182.222 13.1597 182.037 13.9449 182.037 14.9832C182.037 16.0214 182.222 16.8163 182.592 17.342C182.963 17.8708 183.542 18.1369 184.328 18.1369Z" fill="#231815"/>
<path d="M28.3169 4.19846L20.9286 0L14.3984 3.80262L7.71535 0L0.333496 4.19846V12.696L6.89623 16.518V19.701L14.2781 24L21.6599 19.701V16.6608L28.3137 12.7868V4.19846H28.3169ZM20.0217 14.6622L15.1915 11.8491V9.34108L20.0217 12.1541V14.6622ZM1.97499 11.7583V5.15236L7.71535 1.88833L13.459 5.15236V7.3911L6.89623 11.2132V14.6265L1.97499 11.7615V11.7583ZM13.459 9.28593V11.7583L8.53772 14.6232V12.1509L13.459 9.28593ZM14.2781 22.1052L8.53447 18.76V16.5148L14.2456 13.1891L20.0217 16.5505V18.7568L14.2781 22.1019V22.1052ZM26.6754 11.8491L21.6632 14.7692V11.2132L15.1915 7.44626V5.23996L20.9383 1.89482L26.6754 5.1556V11.8524V11.8491Z" fill="#165E83"/>
</svg>
